<svg xmlns="http://www.w3.org/2000/svg" viewBox="0 0 181.56 167.55"><defs><style>.cls-1{fill:#f7f6ca;}.cls-2{fill:#c7797d;}.cls-3{fill:#f7941d;}.cls-4{fill:#f8b5b7;}.cls-5{fill:#3c2415;}.cls-6{fill:#fff;}.cls-7{fill:#f68639;}.cls-8{fill:#a97c50;}.cls-9{fill:#d7b724;}.cls-10,.cls-15,.cls-16,.cls-17{fill:none;}.cls-10{stroke:#3b2416;stroke-linecap:round;stroke-linejoin:round;}.cls-10,.cls-15,.cls-17{stroke-width:2px;}.cls-11{fill:#f7f6c8;}.cls-12{fill:#afa089;}.cls-13{fill:#c2b59b;}.cls-14{fill:#231f20;}.cls-15{stroke:#c2b59b;}.cls-15,.cls-17{stroke-miterlimit:10;}.cls-17{stroke:#c49a6c;}</style></defs><g id="Layer_2" data-name="Layer 2"><g id="Layer_1-2" data-name="Layer 1"><path class="cls-1" d="M157.18,43.41C169.86,46,180,48.25,181.4,54.12c1.93,8.31-13.8,24.24-30.18,21.65-10.83-1.72-20.5-11.31-23.94-21.55-1-2.95-1.94-5.75-.9-8.31C129.63,37.87,148.58,41.68,157.18,43.41Z"/><path class="cls-1" d="M24.4,44.06C11.34,48.1.89,51.58.05,57.45c-1.17,8.32,17,21.87,33.94,17.34,11.21-3,20.38-13.52,22.94-23.89.74-3,1.44-5.84.09-8.2C52.77,35.28,33.26,41.32,24.4,44.06Z"/><path class="cls-2" d="M157.78,47.2c9.26,1.63,16.68,3.12,17.55,7.5,1.23,6.21-10.7,18.56-22.68,17-7.92-1-14.8-8-17.09-15.66-.66-2.2-1.3-4.28-.47-6.23C137.66,43.67,151.5,46.1,157.78,47.2Z"/><path class="cls-2" d="M25.54,47.76c-9.72,3-17.51,5.6-18.13,10C6.53,63.93,20.07,74,32.69,70.65,41,68.41,47.87,60.58,49.78,52.85c.55-2.23,1.07-4.34.07-6.1C46.68,41.22,32.15,45.72,25.54,47.76Z"/><path class="cls-3" d="M134.45,30.31A4.77,4.77,0,0,1,133,32.9c-1.46,1.15-2.56-.57-7.75-.93-6.72-.45-9.18,2.14-10.61.38a2.2,2.2,0,0,1-.47-1.28,3.11,3.11,0,0,1,0-.68,36,36,0,0,1,1.69-5.84,42.92,42.92,0,0,0,1.45-5.82l.09-.52c0-.22.07-.44.1-.66a37.52,37.52,0,0,0,.35-3.88c0-.12,0-.24,0-.35,0-1.15,0-2.2,0-3.16-.08-1.75-.25-3.18-.35-4.35-.13-1.77-.1-2.92.69-3.58,2-1.71,6.88,1.76,9.8,5.16l.44.54a25.63,25.63,0,0,1,3.06,4.87,31.69,31.69,0,0,1,1.63,4h0a33.75,33.75,0,0,1,1.21,4.58A21.53,21.53,0,0,1,134.45,30.31Z"/><path class="cls-3" d="M73.44,30.57c-1.6,1.76-4.39-.83-12-.38-5.86.36-7.1,2.08-8.75.93a3.67,3.67,0,0,1-1.07-1.22C50.56,28,50.33,24.59,51,20.79a29.08,29.08,0,0,1,1.16-4.56,28.59,28.59,0,0,1,1.51-3.71,27.76,27.76,0,0,1,3.06-5,22,22,0,0,1,1.67-1.93c3.29-3.4,8.76-6.87,11.06-5.16,1,.73.93,2.05.71,4.16C70,5.81,69.86,7.26,69.8,9c0,.89,0,1.85,0,2.89l0,.48a32.3,32.3,0,0,0,.5,4.19h0l.09.45a1.42,1.42,0,0,0,0,.22,40.09,40.09,0,0,0,1.33,4.87C73.31,26.45,74.84,29,73.44,30.57Z"/><path class="cls-4" d="M131.06,26.15c2.07,6,4.05,12.7,5.77,20a213,213,0,0,1,4.44,25.64,46.92,46.92,0,0,1,16.92,12.8A46.29,46.29,0,0,1,168,105.8c1.08,5.36,4,20.11-4,35.22-1.72,3.21-6.24,11.44-15.08,16.72-15,8.92-23.86-.46-53-.86-41.82-.58-51.82,7.12-64.47-5.2-12.84-12.5-20.49-33.26-13.86-52.42,5.44-15.77,18-24,22.52-26.65A130.24,130.24,0,0,1,54.71,27,64.26,64.26,0,0,1,90.22,14,64.94,64.94,0,0,1,131.06,26.15Z"/><rect class="cls-5" x="109.44" y="40.41" width="15.3" height="24" rx="7.65" transform="translate(-4.89 12.69) rotate(-6.08)"/><rect class="cls-6" x="115.18" y="48.15" width="3.83" height="8.53" rx="1.91" transform="translate(-4.89 12.69) rotate(-6.08)"/><rect class="cls-5" x="55.83" y="40.03" width="16.87" height="24.77" rx="8.43" transform="translate(6.64 -7.22) rotate(6.78)"/><rect class="cls-6" x="62.16" y="48.01" width="4.22" height="8.8" rx="2.11" transform="translate(6.64 -7.22) rotate(6.78)"/><ellipse class="cls-7" cx="48.17" cy="81.12" rx="10.53" ry="8.38"/><ellipse class="cls-7" cx="128.99" cy="80.22" rx="9.69" ry="8.4"/><path class="cls-8" d="M99.83,28.78c.63,1.5,17.52,1.48,17.52,1.91-.06.59-33.9,2-38.3-1.32-.94-.71-.29-1.46.66-2.23-8.24-1.2-13.8-3.51-13.8-6.16,0-3.89,12-7,26.84-7s26.83,3.16,26.83,7.05c0,2.93-6.87,5.46-16.62,6.51C100.51,28.19,99.67,28.44,99.83,28.78Z"/><path class="cls-9" d="M70.35,16.56h0L51,20.79a29.08,29.08,0,0,1,1.16-4.56l17.7-3.86A32.3,32.3,0,0,0,70.35,16.56Z"/><path class="cls-9" d="M70.16,4.61C70,5.81,69.86,7.26,69.8,9L53.66,12.52a27.76,27.76,0,0,1,3.06-5Z"/><path class="cls-9" d="M131.49,12.8l-13.64-2.64c-.08-1.75-.25-3.18-.35-4.35l10.93,2.12A25.63,25.63,0,0,1,131.49,12.8Z"/><path class="cls-9" d="M134.33,21.35l-16.81-3.8a37.52,37.52,0,0,0,.35-3.88c0-.12,0-.24,0-.35l15.24,3.44h0A33.75,33.75,0,0,1,134.33,21.35Z"/><path class="cls-10" d="M108.82,38.84,111,43"/><path class="cls-10" d="M120.14,41.47l.58-4.57"/><path class="cls-10" d="M61,36.68l.43,4.66"/><path class="cls-10" d="M70.42,43.43l2.28-4"/><path class="cls-11" d="M31.48,82.74A40,40,0,0,0,8.66,115.51c-1.41,21.36,18,43.62,48.34,50.15,9,1,18.83,1.67,29.5,1.84,10.52.18,20.28-.17,29.15-.81,6,.19,19.08-.17,32-7.74,2.82-1.66,28.37-17.17,25.36-42.46-2-17.11-16.1-29.87-30.87-34.93-18.64-6.37-40.32-1.12-54.75,13.36C72.11,79.08,49,74.53,31.48,82.74Z"/><path class="cls-12" d="M57,106.9c-1-.36-2.42-.33-3.56-1a23,23,0,0,0-9.51-2.09,13,13,0,0,0-8.16,2.67,9.37,9.37,0,0,0-3.56,7.35c.06,2.84,1.89,5.84,4.64,8a16.92,16.92,0,0,0,10.75,3.23A30.49,30.49,0,0,0,59,122.29c-2.07.95-4.26,1.54-6.39,2.34a25,25,0,0,1-6.52,1.6,19.62,19.62,0,0,1-7-.47,18.36,18.36,0,0,1-6.69-3.22A11.65,11.65,0,0,1,28,115.42a12.41,12.41,0,0,1,.2-5,14,14,0,0,1,1.54-3.79,16.84,16.84,0,0,1,3.74-4.35c1.08-.88,1.84-1.33,2.1-1.52s0-.13-.7.29c1-.57,1.74-1.15,2.56-1.69A10.3,10.3,0,0,1,40.24,98a14.85,14.85,0,0,1,6.35-.13,29.56,29.56,0,0,1,5.54,1.69,8.14,8.14,0,0,1,2.55.75,33.83,33.83,0,0,1,5.54,4.3c1.72,1.58,3.4,3.29,5.39,5.17l-.92-.45c.62.81.92,1.22,1.52,2A72,72,0,0,0,57,106.9Z"/><path class="cls-13" d="M66.36,111.58a.55.55,0,0,1,.21.4,3.91,3.91,0,0,1-.22,2.87c-.52.91-1.63,1.54-3.69,1.44a1.66,1.66,0,0,1-.51-.13,42.31,42.31,0,0,0-7.65-5.77A21.18,21.18,0,0,0,48.3,108a11.43,11.43,0,0,0-5.95.15,5.87,5.87,0,0,0-3.6,3.31,6.37,6.37,0,0,0,.09,5.06,10.53,10.53,0,0,0,2.56,3.63s.31.37.9.95A16.63,16.63,0,0,0,45,123.13a14.78,14.78,0,0,0,4.12,1.75,19.58,19.58,0,0,0,4.79.6c2.64-.06,4.44-.4,5.52-.45s1.47.09,1.31.49c-.31.76-2.83,2.51-6.58,3.4a9.16,9.16,0,0,1-2.51.43,19.58,19.58,0,0,1-6.52-.55,20.11,20.11,0,0,1-6.19-2.88,18.57,18.57,0,0,1-2.48-2,16.4,16.4,0,0,1-3.31-5A12.65,12.65,0,0,1,33,109a12.07,12.07,0,0,1,7.31-6.77,17.61,17.61,0,0,1,9.19-.36,27.46,27.46,0,0,1,8,3.1A48.28,48.28,0,0,1,66.36,111.58Z"/><ellipse class="cls-14" cx="50.62" cy="115.97" rx="10.41" ry="15.47" transform="translate(-72.88 143.54) rotate(-79)"/><path class="cls-15" d="M24,125.1c-5.11-7.22-4.15-16.92-1.09-25.12,1-2.58,2.21-5.23,4.55-6.83,2.11-1.45,4.82-1.85,7.42-2.05a66.1,66.1,0,0,1,39.73,9.72"/><path class="cls-15" d="M157.7,125.61c5.11-7.22,4.16-16.92,1.1-25.12-1-2.59-2.22-5.23-4.56-6.84-2.11-1.44-4.81-1.84-7.41-2a66.18,66.18,0,0,0-39.74,9.71"/><path class="cls-12" d="M119.42,107.66c.69-1,1.31-2.48,2.65-3.39A26.27,26.27,0,0,1,133.52,99a20.07,20.07,0,0,1,6.38-.12,15.72,15.72,0,0,1,6.12,2.21,14.87,14.87,0,0,1,4.62,4.52,12.29,12.29,0,0,1,.68,12.45,16,16,0,0,1-3.75,4.86,19.19,19.19,0,0,1-5.46,3.57,21.91,21.91,0,0,1-6,1.58,34.9,34.9,0,0,1-12.1-.84,23.78,23.78,0,0,0,6.89.81,25.49,25.49,0,0,0,6.55-1.37,17.42,17.42,0,0,0,5.58-3.19,16.08,16.08,0,0,0,3.77-4.89,15.27,15.27,0,0,0,1.53-5.66,8,8,0,0,0-2.05-5.68,9.65,9.65,0,0,0-3.42-2.52,6.76,6.76,0,0,0-1.83-.53c-.24,0-.07.06.49.24a4.22,4.22,0,0,0-2.2-.05c-.71.12-1.4.37-2.17.49-1.56.19-3.07.35-4.59.65a18.94,18.94,0,0,0-4.46,1.34,9.57,9.57,0,0,1-1.76,1.33,27.65,27.65,0,0,0-10.54,8.21l.36-.94c-.75.67-1.12,1-1.86,1.72A40.7,40.7,0,0,1,119.42,107.66Z"/><path class="cls-13" d="M120.26,118.86a.5.5,0,0,1-.35.23,4.34,4.34,0,0,1-2.83.15c-1-.36-1.84-1.3-2-3.46a2.09,2.09,0,0,1,.09-.56,45,45,0,0,1,7.41-8.2,27.36,27.36,0,0,1,6.8-4.25,18.24,18.24,0,0,1,8.37-1.55,12.59,12.59,0,0,1,4.53,1.16,12.17,12.17,0,0,1,3.82,2.86,11.64,11.64,0,0,1,2.85,9,15.31,15.31,0,0,1-2.45,6.7s-.1.15-.31.4-.49.63-.89,1.06a18.82,18.82,0,0,1-3.5,3,17.76,17.76,0,0,1-5.44,2.46,19.06,19.06,0,0,1-5.79.61,15.67,15.67,0,0,1-5.88-1.18c-1-.47-1.22-.84-.88-1.09.67-.5,3.53-.52,6.67-1.18-.17,0,.7-.16,2-.54a16.15,16.15,0,0,0,4.52-2.12,14.77,14.77,0,0,0,3.5-3.47,14.46,14.46,0,0,0,.85-1.36l.26-.53a8.76,8.76,0,0,0,1.16-3.41,5.35,5.35,0,0,0-1.32-4.21,6.05,6.05,0,0,0-1.83-1.38,6.44,6.44,0,0,0-2.32-.58,12.05,12.05,0,0,0-5.5,1.08,20.52,20.52,0,0,0-5.22,3.29A38.41,38.41,0,0,0,120.26,118.86Z"/><ellipse class="cls-14" cx="131.3" cy="116.17" rx="15.2" ry="9.86" transform="translate(-33.17 55.47) rotate(-21.24)"/><path class="cls-16" d="M28.89,148.31A155.08,155.08,0,0,0,122.8,163.9a56,56,0,0,0,14.44-3.78,24.61,24.61,0,0,0,11.28-9.48"/><path class="cls-17" d="M39.74,149.13c9.3,4.25,19.86,5.15,30.17,5.75q18.3,1.06,36.66,1.11c7.55,0,15.17-.09,22.58-1.52s14.68-4.25,20.29-9.07"/></g></g></svg>