<svg xmlns="http://www.w3.org/2000/svg" xmlns:xlink="http://www.w3.org/1999/xlink" viewBox="0 0 245.34 301.5"><defs><style>.cls-1,.cls-2{stroke:#824d1f;stroke-width:26px;}.cls-1,.cls-11,.cls-12,.cls-2{stroke-miterlimit:10;}.cls-1{fill:url(#radial-gradient);}.cls-2{fill:url(#radial-gradient-2);}.cls-3{fill:#824d1f;}.cls-4{fill:url(#linear-gradient);}.cls-5{fill:#231f20;}.cls-6{fill:#7d5c3f;}.cls-11,.cls-7{fill:#fff;}.cls-8{opacity:0.6;}.cls-9{fill:#f37b8b;}.cls-10{fill:#f0a89c;}.cls-11,.cls-12{stroke:#573c26;stroke-width:3px;}.cls-12{fill:none;}</style><radialGradient id="radial-gradient" cx="177.77" cy="85.44" fx="218.59511974810482" fy="91.783464586594" r="54.22" gradientTransform="matrix(0.01, -1, 0.25, 0, 154.31, 262.43)" gradientUnits="userSpaceOnUse"><stop offset="0" stop-color="#7ecaac"/><stop offset="1" stop-color="#5e9680"/></radialGradient><radialGradient id="radial-gradient-2" cx="67.8" cy="88.51" fx="111.92562861158271" fy="106.25475343482448" r="58.94" gradientTransform="translate(101.71 23.27) rotate(94.65) scale(1 0.32)" xlink:href="#radial-gradient"/><linearGradient id="linear-gradient" x1="293.63" y1="84.16" x2="117.02" y2="225.88" gradientUnits="userSpaceOnUse"><stop offset="0.02" stop-color="#fff"/><stop offset="1" stop-color="#fff2c0"/></linearGradient></defs><g id="Layer_2" data-name="Layer 2"><g id="Layer_1-2" data-name="Layer 1"><path class="cls-1" d="M161.84,13.23h32.78a18.19,18.19,0,0,1,18.19,18.19V129a28.22,28.22,0,0,1-28.22,28.22h-.71A40.22,40.22,0,0,1,143.65,117V31.42a18.19,18.19,0,0,1,18.19-18.19Z" transform="translate(352.65 178.01) rotate(-177.55)"/><path class="cls-2" d="M73.2,16.23h0a30.18,30.18,0,0,1,30.18,30.18v93.66a20.15,20.15,0,0,1-20.15,20.15H51.16A20.15,20.15,0,0,1,31,140.08V58.42A42.19,42.19,0,0,1,73.2,16.23Z" transform="translate(-4.87 3.93) rotate(-3.23)"/><path class="cls-3" d="M245.34,204.1c.42,53.3-49,84.66-62.89,89.1-3.3,1.06-7.26,2.1-7.26,2.1a163.54,163.54,0,0,1-32.22,5c-27.35,1.88-65.46-2.34-67.65-2.59a86.13,86.13,0,0,1-25.39-9c-34.72-19-55.84-62.89-48.46-101.12a74.87,74.87,0,0,1,1.83-7.42c13-44.36,61.5-77.3,119.29-77.3,26.39,0,50.83,6.87,70.85,18.56C202.31,126.59,244.94,154.71,245.34,204.1Z"/><path class="cls-4" d="M235.62,220.25c0,31.53-27.28,60.37-52.47,71.88-16.64,7.61-33.44,8.14-58.9,8.94-21,.67-33.43,1.06-46.81-2.77-31.86-9.11-67.53-41.71-67.88-78.05-.45-46.37,60.09-85.11,113-85.11C185,135.14,235.62,173.25,235.62,220.25Z"/><path class="cls-3" d="M193.44,121.41c-1.36,5.14-4.49,10.61-9.13,16.17C170.8,153.8,144.49,170.8,112,182.68c-41.23,15.07-80.18,17.4-98.72,7.54-4.79-2.55-8.22-5.91-10-10.07,13-44.36,61.5-77.3,119.29-77.3C149,102.85,173.42,109.72,193.44,121.41Z"/><path class="cls-5" d="M75.17,219.1c0,7.2-5.17,13-11.54,13s-11.53-5.83-11.53-13a14.26,14.26,0,0,1,1.54-6.5c-8.45-.07-15.2-1.76-15.2-3.82S45.51,205,54.23,205c7.63,0,14,1.31,15.46,3.06v0A13.44,13.44,0,0,1,75.17,219.1Z"/><path class="cls-5" d="M198.34,219.67c0,7.19-5.16,13-11.53,13s-11.54-5.84-11.54-13a14.27,14.27,0,0,1,1.54-6.51c-8.45-.07-15.2-1.75-15.2-3.82s7.07-3.83,15.79-3.83c7.67,0,14.07,1.32,15.49,3.09A13.45,13.45,0,0,1,198.34,219.67Z"/><ellipse class="cls-6" cx="122.59" cy="245.66" rx="19.16" ry="11.42"/><ellipse class="cls-7" cx="122.59" cy="242.66" rx="11.23" ry="5.71"/><g class="cls-8"><ellipse class="cls-9" cx="212.88" cy="241.15" rx="4.98" ry="5.86" transform="matrix(0.87, -0.5, 0.5, 0.87, -92.06, 138.75)"/><path class="cls-10" d="M215.8,231.57c.49-.06,1.1-.27,1.76-.34a2,2,0,0,1,1.74.46,11.83,11.83,0,0,1,4.72,7.5,10.85,10.85,0,0,1-2.17,8.79,9.2,9.2,0,0,1-4,2.82,8.36,8.36,0,0,1-10.37-4.21,9.38,9.38,0,0,1-1.24-6.37,7.31,7.31,0,0,1,1.09-2.82,5.73,5.73,0,0,1,2.25-2,8.11,8.11,0,0,0-1.41,1,2.1,2.1,0,0,0-.7,1.54,5,5,0,0,0,3.08,4.51,3.41,3.41,0,0,0,2.18.07c.61-.17.83-.45.86-.14.16.76.61.6.55.34s-.33-.39-.35-.29c0-.07-.35-.25-.8-.35a5.43,5.43,0,0,0-.67-.1c-.2,0-.19,0-.3,0l-.22,0h-.05a1.4,1.4,0,0,0,.38-.2,2,2,0,0,0,.76-1c-.23.1-.51.21-.4,0a3.65,3.65,0,0,0,.28-2.47,1.75,1.75,0,0,0-1.83-1.44c.05-.29.14-.61.14-.61a4.19,4.19,0,0,0-1.33-.55,4.31,4.31,0,0,1,2-2.82A9.32,9.32,0,0,1,215.8,231.57Z"/></g><g class="cls-8"><circle class="cls-9" cx="28.33" cy="244.59" r="5.41"/><path class="cls-10" d="M20,238.92c.07-.47,0-1.15.08-1.82a2.19,2.19,0,0,1,.93-1.66,10.93,10.93,0,0,1,9.49-2.29,10.52,10.52,0,0,1,7.13,5.68,9.7,9.7,0,0,1,.06,8.35,8.36,8.36,0,0,1-5.82,4.64,7.88,7.88,0,0,1-6.64-1.11,7.06,7.06,0,0,1-3-5,10.49,10.49,0,0,0,.36,1.6,2.08,2.08,0,0,0,1.08,1.25c2.2.93,4.23.31,5.13-1a2.44,2.44,0,0,0,.4-1.92c-.11-.58-.35-.78,0-.82a.76.76,0,0,0,.63-.71.53.53,0,0,0-.25-.54c-.29-.16-.53.07-.44.15-.06-.06-.4.19-.67.55-.06.08-.15.2-.19.27h0v0s0-.08,0,0v.06s0,.07,0,0l0-.16a1.52,1.52,0,0,0-.25-.51c.07.24.2.49.07.32a2.61,2.61,0,0,0-2.19-1,1.92,1.92,0,0,0-1.87,1.56,5.05,5.05,0,0,1-.55-.32,5.3,5.3,0,0,0-.93,1.1,4.77,4.77,0,0,1-2.15-2.62A8.79,8.79,0,0,1,20,238.92Z"/></g><path class="cls-11" d="M97.68,266c-.93,1.48,5.83,8.16,13.67,12.13,3.47,1.75,6.77,3.42,11.43,3.48,7.95.09,13.54-4.59,15.93-6.58,2.85-2.38,7.4-7.1,6.45-8.52-1.27-1.88-9.91,5.46-22.45,5.94C108.42,273,98.77,264.24,97.68,266Z"/><path class="cls-12" d="M122.72,273.46l.26,7.23"/></g></g></svg>