<svg xmlns="http://www.w3.org/2000/svg" xmlns:xlink="http://www.w3.org/1999/xlink" viewBox="0 0 275.56 161.26"><defs><style>.cls-1{fill:url(#linear-gradient);}.cls-2{fill:url(#linear-gradient-2);}.cls-3{fill:#00a651;}.cls-4{fill:url(#hair);}.cls-5{fill:none;stroke:#231f20;stroke-linecap:round;stroke-linejoin:round;stroke-width:4px;}.cls-6{fill:#fff;}.cls-7{fill:#231f20;}.cls-8{fill:url(#linear-gradient-3);}.cls-9{fill:url(#linear-gradient-4);}.cls-10{fill:url(#hair-2);}</style><linearGradient id="linear-gradient" x1="100.11" y1="40.14" x2="179.66" y2="184.49" gradientUnits="userSpaceOnUse"><stop offset="0.79" stop-color="#e5e576"/><stop offset="1" stop-color="#b7b834"/></linearGradient><linearGradient id="linear-gradient-2" x1="38.55" y1="162.4" x2="55.34" y2="41.76" gradientTransform="translate(34.25 -7.79) rotate(24.99)" gradientUnits="userSpaceOnUse"><stop offset="0.85" stop-color="#e5e477"/><stop offset="1" stop-color="#b7b834"/></linearGradient><linearGradient id="hair" x1="113.68" y1="71.22" x2="158.45" y2="71.22" gradientUnits="userSpaceOnUse"><stop offset="0.54" stop-color="#a67c58"/><stop offset="1" stop-color="#754d29"/></linearGradient><linearGradient id="linear-gradient-3" x1="156.48" y1="52.61" x2="147.05" y2="57.39" gradientTransform="matrix(1, -0.05, 0.05, 1, -2.77, 8.41)" gradientUnits="userSpaceOnUse"><stop offset="0.29" stop-color="#a67c58"/><stop offset="1" stop-color="#754d29"/></linearGradient><linearGradient id="linear-gradient-4" x1="200.8" y1="41.24" x2="257.3" y2="116.12" gradientTransform="matrix(1, 0, 0, 1, 0, 0)" xlink:href="#linear-gradient-2"/><linearGradient id="hair-2" x1="88.49" y1="-20.55" x2="88.21" y2="35.17" xlink:href="#hair"/></defs><g id="Layer_2" data-name="Layer 2"><g id="Layer_1-2" data-name="Layer 1"><path class="cls-1" d="M208.79,74.24c1.14,6.76,8.3,49-19,72.78-16.71,14.51-37.16,14.36-57.12,14.22-18.43-.14-59-.35-77.75-29-10.32-15.76-9.5-32.76-9-43,0-.11.07-1.71.22-3.57,1.2-15,4.14-51.65,30.06-71.87C96.47-2,121.1-.22,129.35.38A87.39,87.39,0,0,1,179.67,21C202.78,40.94,207.51,66.64,208.79,74.24Z"/><path class="cls-2" d="M86.39,143.67c-6.57,4.49-17.86-1.86-31.8-9.91-16.16-9.34-28.51-16.47-39.08-32.09A86.87,86.87,0,0,1,1.92,68.21,85,85,0,0,1,1,45.47c0-.38.07-.75.11-1.11a8.39,8.39,0,0,1-.32-.82c-1.45-4.24-.77-10,2.1-12.9,1.24-1.26,3.42-2.55,11.52-2.15a74.14,74.14,0,0,1,21.2,4.22c.87,2.4,2.15,6,3.62,10.54.24.73.48,1.5.72,2.27,3.72,11.7,4.08,15,5.69,17a7.24,7.24,0,0,0,1,1c8.44,7.84,19.14,5.6,27,11,2.79,1.91,4.67,5.62,8.44,13,0,0,6.7,13.06,8.91,32.48a45.62,45.62,0,0,1,.3,6.07C91.17,133.4,91,140.5,86.39,143.67Z"/><path class="cls-3" d="M39.17,43.41,1,45.63c0-.38.07-.75.1-1.11-.08-.19-.2-.47-.31-.82-1.45-4.24-.77-10,2.1-12.9,1.24-1.27,3.42-2.56,11.52-2.16a74.22,74.22,0,0,1,21.2,4.23C36.43,35.27,37.71,38.91,39.17,43.41Z"/><path class="cls-4" d="M158.45,84.84c-.07.26-.16.52-.25.79s-.22.55-.35.83L152,90.05l-15.62,4.22-6.58,1.22-3.37.62-1,.19a7.89,7.89,0,0,1-3.83-.55,10.25,10.25,0,0,1-6.1-8.58l-1.6-15.37C112.49,58.94,120.6,47.55,132,46.37l1.7-.18c11.34-1.18,21.63,8.28,23,21.15v0Z"/><path class="cls-5" d="M130.13,134.57a45.86,45.86,0,0,1-36.65,16.78"/><path class="cls-6" d="M158.26,86.21l-.41.25L152,90.05l-15.62,4.22-6.58,1.22-3.37.62-1,.19a7.89,7.89,0,0,1-3.83-.55l-1.8-7.42-1.56-14.94c-1.17-11.25,6.46-21.27,17-22.38a17.41,17.41,0,0,1,1.9-.1c8.34,0,15.73,5.72,18.42,13.94a21.06,21.06,0,0,1,1,4.54c.57,5.42,1.13,10.82,1.7,16.24Z"/><path class="cls-7" d="M158.2,85.63l.06.58-.41.25L152,90.05l-15.62,4.22-5.5,1.49a6.56,6.56,0,0,1-1.08-.27c-2.86-1-5.1-4-5.47-7.84l-.93-9.81c-1.12-11.76,5.75-22.2,15.34-23.32a13.8,13.8,0,0,1,1.69-.1c6.27,0,12,4.12,15.15,10.43a23.14,23.14,0,0,1,1.09,2.49v0l1.83,17.48C158.38,85.1,158.29,85.36,158.2,85.63Z"/><path class="cls-8" d="M156.23,46.12c-.48.12,1,3.23-.13,5.9a4.25,4.25,0,0,1-2.8,2.51c-2.3.45-4.43-1.79-4.6-1.46-.26.49,3.74,6.8,7.48,5.93,2.49-.58,3.18-4,3.08-6.17C159.1,49.26,156.74,46,156.23,46.12Z"/><circle class="cls-6" cx="144.3" cy="67.82" r="5.54"/><path class="cls-9" d="M267.72,100.16c-7.73,10.92-23,17.64-38.9,16.68a49.09,49.09,0,0,1-4.94-.55c-1.42-.23-2.83-.52-4.24-.89a48.06,48.06,0,0,1-12.33-5c-.37-.2-.73-.41-1.09-.63-22.43-13.6-30.56-47.26-19.92-59,8.36-9.21,30-6.77,40.29-3.78,2.73.79,4.83,1.68,13.39,4.31,13.4,4.12,14.45,3.85,18.41,5.93S270.24,63.5,273.11,72C274.51,76.21,280.06,82.74,267.72,100.16Z"/><path class="cls-10" d="M101,5.7a27.47,27.47,0,0,0-16.21-.26c-10,3.09-15.15,11.71-18.56,17.43a52.24,52.24,0,0,0-5.91,14.59A81.4,81.4,0,0,0,73.22,25.71c1.46-1.66,2.78-3.29,4-4.9A24.39,24.39,0,0,0,77,32.07a21.87,21.87,0,0,0,5.53,10.7A76.57,76.57,0,0,1,86.43,31c1.71-4,4.44-9.47,5.3-9.06s-.83,4.37-.4,9.67a24.77,24.77,0,0,0,4.09,11.47,33.66,33.66,0,0,0,4.15-11c1-5.18.43-9.19,1.15-9.33S102.38,27.8,105.1,34c.52,1.19,5.74,13,8.53,12.08s3.81-14-.24-24.71A33,33,0,0,0,101,5.7Z"/><path class="cls-3" d="M227.8,116.77a38.55,38.55,0,0,1-4.26-.33l-3.67-.67a39.39,39.39,0,0,1-10.79-4.21c.46-2.13.89-4.26,1.35-6.39A48.52,48.52,0,0,0,223.85,115C225.21,115.7,226.53,116.28,227.8,116.77Z"/></g></g></svg>