<svg xmlns="http://www.w3.org/2000/svg" xmlns:xlink="http://www.w3.org/1999/xlink" viewBox="0 0 265.71 161.26"><defs><style>.cls-1{fill:url(#linear-gradient);}.cls-2{fill:url(#linear-gradient-2);}.cls-3{fill:#00a651;}.cls-4{fill:url(#hair);}.cls-5{fill:none;stroke:#231f20;stroke-linecap:round;stroke-linejoin:round;stroke-width:4px;}.cls-6{fill:#fff;}.cls-7{fill:#231f20;}.cls-8{fill:url(#linear-gradient-3);}.cls-9{fill:url(#linear-gradient-4);}.cls-10{fill:url(#hair-2);}</style><linearGradient id="linear-gradient" x1="95.49" y1="27.63" x2="175.04" y2="171.98" gradientUnits="userSpaceOnUse"><stop offset="0.85" stop-color="#f7ee64"/><stop offset="1" stop-color="#b7b834"/></linearGradient><linearGradient id="linear-gradient-2" x1="52.7" y1="186.83" x2="69.5" y2="66.19" xlink:href="#linear-gradient"/><linearGradient id="hair" x1="115.96" y1="71.22" x2="160.72" y2="71.22" gradientUnits="userSpaceOnUse"><stop offset="0.54" stop-color="#a67c58"/><stop offset="1" stop-color="#754d29"/></linearGradient><linearGradient id="linear-gradient-3" x1="158.53" y1="52.74" x2="149.1" y2="57.52" gradientTransform="translate(-2.55 8.39) rotate(-3.07)" gradientUnits="userSpaceOnUse"><stop offset="0.29" stop-color="#a67c58"/><stop offset="1" stop-color="#754d29"/></linearGradient><linearGradient id="linear-gradient-4" x1="257.34" y1="58.3" x2="195.83" y2="108.12" xlink:href="#linear-gradient"/><linearGradient id="hair-2" x1="86.26" y1="-20.17" x2="85.97" y2="35.55" xlink:href="#hair"/></defs><g id="Layer_2" data-name="Layer 2"><g id="Layer_1-2" data-name="Layer 1"><path class="cls-1" d="M211.06,74.24c1.14,6.76,8.3,49-19,72.78-16.7,14.51-37.15,14.36-57.12,14.22-18.43-.14-59-.35-77.75-29-10.31-15.76-9.49-32.76-9-43,0-.11.07-1.71.22-3.57,1.21-15,4.14-51.65,30.07-71.87C98.74-2,123.37-.22,131.63.38A87.41,87.41,0,0,1,182,21C205.06,40.94,209.78,66.64,211.06,74.24Z"/><path class="cls-2" d="M125.41,139.66c-4.06,6.85-17,5.86-33,4.46-18.59-1.64-32.8-2.88-49-12.57A87,87,0,0,1,17,107,85.27,85.27,0,0,1,6.54,86.73l-.37-1a8.18,8.18,0,0,1-.63-.61C2.43,81.84.62,76.35,2,72.49c.59-1.67,2-3.76,9.53-6.82a74.21,74.21,0,0,1,21-5.13c1.8,1.81,4.5,4.57,7.73,8,.53.56,1.07,1.15,1.62,1.75,8.31,9,10,11.86,12.33,13a9,9,0,0,0,1.38.49c11,3.54,19.72-3,29.06-1.46,3.33.55,6.6,3.12,13.16,8.26,0,0,11.59,9,21.8,25.68a43.39,43.39,0,0,1,2.83,5.36C125.4,128.34,128.27,134.83,125.41,139.66Z"/><path class="cls-3" d="M38.72,67.11,5,85.27l-.37-1A8.18,8.18,0,0,1,4,83.61C.9,80.38-.91,74.89.46,71c.59-1.67,2-3.76,9.53-6.82a74.21,74.21,0,0,1,21-5.13C32.79,60.89,35.49,63.65,38.72,67.11Z"/><path class="cls-4" d="M160.72,84.84c-.07.26-.16.52-.25.79s-.22.55-.35.83l-5.9,3.59L138.6,94.27,132,95.49l-3.37.62-1,.19a7.89,7.89,0,0,1-3.83-.55,10.25,10.25,0,0,1-6.1-8.58L116.1,71.8c-1.34-12.86,6.77-24.25,18.12-25.43l1.7-.18c11.34-1.18,21.63,8.28,23,21.15v0Z"/><path class="cls-5" d="M132.4,134.57a45.84,45.84,0,0,1-36.64,16.78"/><path class="cls-6" d="M160.53,86.21l-.41.25-5.9,3.59L138.6,94.27,132,95.49l-3.37.62-1,.19a7.89,7.89,0,0,1-3.83-.55L122,88.33l-1.56-14.94c-1.17-11.25,6.46-21.27,17-22.38a17.41,17.41,0,0,1,1.9-.1c8.34,0,15.73,5.72,18.42,13.94a21.06,21.06,0,0,1,1,4.54c.57,5.42,1.13,10.82,1.7,16.24Z"/><path class="cls-7" d="M160.47,85.63l.06.58-.41.25-5.9,3.59L138.6,94.27l-5.5,1.49a6.56,6.56,0,0,1-1.08-.27c-2.86-1-5.1-4-5.47-7.84l-.93-9.81c-1.12-11.76,5.75-22.2,15.34-23.32a13.8,13.8,0,0,1,1.69-.1c6.27,0,12,4.12,15.15,10.43a23.14,23.14,0,0,1,1.09,2.49v0l1.83,17.48C160.65,85.1,160.56,85.36,160.47,85.63Z"/><path class="cls-8" d="M158.5,46.12c-.48.12,1,3.23-.13,5.9a4.22,4.22,0,0,1-2.8,2.51c-2.3.45-4.43-1.79-4.6-1.46-.25.49,3.74,6.8,7.48,5.93,2.5-.58,3.19-4,3.08-6.17C161.37,49.26,159,46,158.5,46.12Z"/><circle class="cls-6" cx="146.58" cy="67.82" r="5.54"/><path class="cls-9" d="M259.76,105.28c-9,12.58-32.1,17.24-51.17,5.68C189.36,99.31,181.43,72,190,63c6.69-7.11,24.92-4.43,33.61-1.69,2.31.73,4.1,1.51,11.35,3.9,11.36,3.75,12.22,3.57,15.61,5.37s10.13,5.39,12.81,12.33C264.65,86.28,269.51,91.71,259.76,105.28Z"/><path class="cls-10" d="M98.79,6.08a27.44,27.44,0,0,0-16.21-.25C72.56,8.91,67.42,17.53,64,23.25a52.16,52.16,0,0,0-5.91,14.6A82,82,0,0,0,71,26.09c1.46-1.65,2.79-3.29,4-4.89a24.48,24.48,0,0,0-.23,11.25,21.91,21.91,0,0,0,5.53,10.7,78,78,0,0,1,3.92-11.8c1.72-4,4.44-9.47,5.3-9s-.83,4.36-.39,9.66a24.66,24.66,0,0,0,4.08,11.47,33.56,33.56,0,0,0,4.15-11c1-5.18.44-9.19,1.15-9.33s1.67,5.06,4.38,11.25c.52,1.19,5.74,13,8.53,12.08s3.81-14-.23-24.7A33.09,33.09,0,0,0,98.79,6.08Z"/></g></g></svg>