<svg xmlns="http://www.w3.org/2000/svg" xmlns:xlink="http://www.w3.org/1999/xlink" viewBox="0 0 280.73 161.26"><defs><style>.cls-1{fill:url(#linear-gradient);}.cls-2{fill:url(#linear-gradient-2);}.cls-3{fill:#00a651;}.cls-4{fill:url(#hair);}.cls-5{fill:none;stroke:#231f20;stroke-linecap:round;stroke-linejoin:round;stroke-width:4px;}.cls-6{fill:#fff;}.cls-7{fill:#231f20;}.cls-8{fill:url(#linear-gradient-3);}.cls-9{fill:url(#linear-gradient-4);}.cls-10{fill:url(#hair-2);}</style><linearGradient id="linear-gradient" x1="29.27" y1="-97.78" x2="108.82" y2="46.57" gradientUnits="userSpaceOnUse"><stop offset="0.79" stop-color="#e5e576"/><stop offset="1" stop-color="#ecea69"/></linearGradient><linearGradient id="linear-gradient-2" x1="31.91" y1="224.94" x2="48.7" y2="104.3" gradientTransform="translate(34.73 -9.97) rotate(24.99)" gradientUnits="userSpaceOnUse"><stop offset="0.85" stop-color="#e5e477"/><stop offset="1" stop-color="#edea69"/></linearGradient><linearGradient id="hair" x1="118.84" y1="71.22" x2="163.61" y2="71.22" gradientUnits="userSpaceOnUse"><stop offset="0.54" stop-color="#a67c58"/><stop offset="1" stop-color="#754d29"/></linearGradient><linearGradient id="linear-gradient-3" x1="161.64" y1="52.61" x2="152.21" y2="57.39" gradientTransform="matrix(1, -0.05, 0.05, 1, -2.77, 8.68)" gradientUnits="userSpaceOnUse"><stop offset="0.29" stop-color="#a67c58"/><stop offset="1" stop-color="#754d29"/></linearGradient><linearGradient id="linear-gradient-4" x1="298.06" y1="22.16" x2="225.52" y2="81.62" gradientUnits="userSpaceOnUse"><stop offset="0.67" stop-color="#e5e477"/><stop offset="0.85" stop-color="#e5e477"/><stop offset="0.99" stop-color="#ebea6a"/></linearGradient><linearGradient id="hair-2" x1="93.66" y1="-20.55" x2="93.37" y2="35.17" xlink:href="#hair"/></defs><g id="Layer_2" data-name="Layer 2"><g id="Layer_1-2" data-name="Layer 1"><path class="cls-1" d="M214,74.24c1.14,6.76,8.3,49-19,72.78-16.71,14.51-37.16,14.36-57.12,14.22-18.43-.14-59-.35-77.75-29-10.32-15.76-9.5-32.76-9-43,0-.11.07-1.71.22-3.57,1.2-15,4.14-51.65,30.06-71.87C101.63-2,126.26-.22,134.51.38A87.43,87.43,0,0,1,184.84,21C207.94,40.94,212.67,66.64,214,74.24Z"/><path class="cls-2" d="M86.39,146c-6.57,4.49-17.86-1.86-31.8-9.9C38.43,126.74,26.08,119.62,15.51,104A87,87,0,0,1,1.92,70.53,85,85,0,0,1,1,47.79c0-.38.07-.75.11-1.11a7.48,7.48,0,0,1-.32-.82C-.64,41.62,0,35.88,2.91,33c1.24-1.26,3.42-2.55,11.52-2.15A74.14,74.14,0,0,1,35.63,35c.87,2.4,2.15,6,3.62,10.55.24.73.48,1.49.72,2.27,3.72,11.69,4.08,15,5.69,17a8.44,8.44,0,0,0,1,1c8.44,7.83,19.14,5.59,27,11,2.79,1.9,4.67,5.62,8.44,13,0,0,6.7,13.06,8.91,32.49a45.55,45.55,0,0,1,.3,6.06C91.17,135.73,91,142.82,86.39,146Z"/><path class="cls-3" d="M39.17,45.73,1,48c0-.38.07-.75.1-1.11C1,46.65.85,46.37.74,46-.71,41.78,0,36,2.84,33.12,4.08,31.86,6.26,30.57,14.36,31a74.14,74.14,0,0,1,21.2,4.22C36.43,37.59,37.71,41.23,39.17,45.73Z"/><path class="cls-4" d="M163.61,84.84c-.07.26-.16.52-.25.79s-.22.55-.35.83l-5.9,3.59-15.62,4.22-6.58,1.22-3.37.62-1,.19a7.89,7.89,0,0,1-3.83-.55,10.25,10.25,0,0,1-6.1-8.58L119,71.8c-1.34-12.86,6.77-24.25,18.12-25.43l1.7-.18c11.34-1.18,21.63,8.28,23,21.15v0Z"/><path class="cls-5" d="M135.29,134.57a45.85,45.85,0,0,1-36.65,16.78"/><path class="cls-6" d="M163.42,86.21l-.41.25-5.9,3.59-15.62,4.22-6.58,1.22-3.37.62-1,.19a7.89,7.89,0,0,1-3.83-.55l-1.8-7.42-1.56-14.94c-1.17-11.25,6.46-21.27,17-22.38a17.41,17.41,0,0,1,1.9-.1c8.34,0,15.73,5.72,18.42,13.94a21.06,21.06,0,0,1,1,4.54c.57,5.42,1.13,10.82,1.7,16.24Z"/><path class="cls-7" d="M163.36,85.63l.06.58-.41.25-5.9,3.59-15.62,4.22L136,95.76a6.56,6.56,0,0,1-1.08-.27c-2.86-1-5.1-4-5.47-7.84l-.93-9.81c-1.12-11.76,5.75-22.2,15.34-23.32a13.8,13.8,0,0,1,1.69-.1c6.27,0,12,4.12,15.15,10.43a23.14,23.14,0,0,1,1.09,2.49v0l1.83,17.48C163.54,85.1,163.45,85.36,163.36,85.63Z"/><path class="cls-8" d="M161.39,46.12c-.48.12,1,3.23-.13,5.9a4.25,4.25,0,0,1-2.8,2.51c-2.3.45-4.43-1.79-4.6-1.46-.26.49,3.74,6.8,7.48,5.93,2.49-.58,3.18-4,3.08-6.17C164.26,49.26,161.9,46,161.39,46.12Z"/><circle class="cls-6" cx="149.47" cy="67.82" r="5.54"/><path class="cls-9" d="M272.88,100.16c-7.73,10.92-23,17.64-38.9,16.68a49.09,49.09,0,0,1-4.94-.55c-1.42-.23-2.83-.52-4.24-.89a48.06,48.06,0,0,1-12.33-5c-.37-.2-.73-.41-1.09-.63-22.43-13.6-30.56-47.26-19.92-59,8.36-9.21,30-6.77,40.29-3.78,2.73.79,4.83,1.68,13.39,4.31,13.4,4.12,14.45,3.85,18.41,5.93S275.4,63.5,278.27,72C279.67,76.21,285.22,82.74,272.88,100.16Z"/><path class="cls-10" d="M106.19,5.7A27.5,27.5,0,0,0,90,5.44C80,8.53,74.82,17.15,71.41,22.87A52.24,52.24,0,0,0,65.5,37.46,81.4,81.4,0,0,0,78.38,25.71c1.46-1.66,2.78-3.29,4-4.9a24.53,24.53,0,0,0-.23,11.26,22,22,0,0,0,5.53,10.7A76.57,76.57,0,0,1,91.59,31c1.72-4,4.44-9.47,5.3-9.06s-.83,4.37-.4,9.67a24.77,24.77,0,0,0,4.09,11.47,33.66,33.66,0,0,0,4.15-11c1-5.18.44-9.19,1.15-9.33s1.66,5.06,4.38,11.25c.52,1.19,5.74,13,8.53,12.08s3.81-14-.23-24.71A33.11,33.11,0,0,0,106.19,5.7Z"/><path class="cls-3" d="M233,116.77a38.55,38.55,0,0,1-4.26-.33l-3.67-.67a39.39,39.39,0,0,1-10.79-4.21c.46-2.13.9-4.26,1.35-6.39A48.52,48.52,0,0,0,229,115C230.37,115.7,231.69,116.28,233,116.77Z"/></g></g></svg>