<svg xmlns="http://www.w3.org/2000/svg" viewBox="0 0 446.05 434.15"><defs><style>.cls-1,.cls-10,.cls-11,.cls-12,.cls-13,.cls-3,.cls-7,.cls-8,.cls-9{fill:#3c5e40;}.cls-1{stroke:#95904c;}.cls-1,.cls-11,.cls-12,.cls-13,.cls-2,.cls-3,.cls-4,.cls-5,.cls-6,.cls-7{stroke-miterlimit:10;}.cls-1,.cls-11{stroke-width:6px;}.cls-2{fill:#95904c;stroke:#427b53;}.cls-2,.cls-7,.cls-8,.cls-9{stroke-width:13px;}.cls-3{stroke:#ccc04d;}.cls-10,.cls-12,.cls-3{stroke-width:15px;}.cls-4{font-size:59.42px;}.cls-4,.cls-5,.cls-6{fill:#ccc04b;font-family:AutomateOT-Regular, Automate OT;}.cls-11,.cls-12,.cls-13,.cls-4,.cls-5,.cls-6{stroke:#ccc04b;}.cls-5{font-size:61.76px;}.cls-6{font-size:53.7px;}.cls-10,.cls-7,.cls-8,.cls-9{stroke:#5bab64;}.cls-10,.cls-8{stroke-linecap:round;}.cls-10,.cls-8,.cls-9{stroke-linejoin:round;}.cls-13{stroke-width:20px;}</style></defs><g id="Layer_2" data-name="Layer 2"><g id="Layer_1-2" data-name="Layer 1"><circle class="cls-1" cx="57" cy="305.27" r="8.6"/><circle class="cls-1" cx="57.74" cy="308.76" r="8.6"/><circle class="cls-1" cx="58.26" cy="300.8" r="8.6"/><circle class="cls-1" cx="57" cy="308.76" r="8.6"/><circle class="cls-1" cx="58.26" cy="305.27" r="8.6"/><circle class="cls-1" cx="130.5" cy="47.11" r="8.6"/><path class="cls-2" d="M97.58,173.08c-13-5.19-58.15-3.24-58.15-3.24s-1,90.26,0,90.26,83.08,10.39,83.08,10.39,3,105.19,4.94,106.49,200.65,0,200.65,0"/><path class="cls-3" d="M438.55,217.08c0,115.74-96.49,209.57-215.52,209.57S7.5,332.82,7.5,217.08c0-90.15,58.54-167,140.67-196.59A220.45,220.45,0,0,1,223,7.5C342.06,7.5,438.55,101.33,438.55,217.08Z"/><text class="cls-4" transform="translate(115.12 382.82) scale(1.7 1)">C</text><text class="cls-5" transform="translate(194.54 399.85) scale(1.66 1)">B</text><text class="cls-6" transform="translate(273.64 377.56) scale(2.26 1)">L</text><line class="cls-7" x1="317.44" y1="296.35" x2="273.55" y2="245.22"/><line class="cls-7" x1="130.5" y1="49.79" x2="149.09" y2="77.13"/><path class="cls-8" d="M276.17,79.53s16.22-33.72,19.47-37l20.13,18.49v81.51l81.17,16.24"/><line class="cls-7" x1="403.46" y1="185.58" x2="322.29" y2="167.4"/><polyline class="cls-9" points="375.47 326.98 158.95 326.98 162.08 265.29"/><polyline class="cls-9" points="57 299.06 57 166.31 118.69 168.23"/><polyline class="cls-10" points="317.44 294.86 317.44 204.84 406.92 218.22"/><circle class="cls-11" cx="412.07" cy="217.24" r="8.6"/><polygon class="cls-12" points="174.13 110.75 258.92 110.75 307.97 170.18 273.64 242.73 174.13 242.73 139.79 172.94 174.13 110.75"/><path class="cls-13" d="M165.13,244h3.41a0,0,0,0,1,0,0v25.56a1.53,1.53,0,0,1-1.53,1.53h-.09a1.79,1.79,0,0,1-1.79-1.79V244A0,0,0,0,1,165.13,244Z" transform="matrix(0.96, 0.28, -0.28, 0.96, 77.62, -36.06)"/><path class="cls-13" d="M120.15,155.89h3.41a0,0,0,0,1,0,0v25.56A1.53,1.53,0,0,1,122,183h-.09a1.79,1.79,0,0,1-1.79-1.79V155.89A0,0,0,0,1,120.15,155.89Z" transform="translate(296.7 55.46) rotate(92.62)"/><path class="cls-13" d="M283.86,240.81h3.41a0,0,0,0,1,0,0v25.56a1.53,1.53,0,0,1-1.53,1.53h-.09a1.79,1.79,0,0,1-1.79-1.79V240.81a0,0,0,0,1,0,0Z" transform="translate(-91.51 190.64) rotate(-32.1)"/><path class="cls-13" d="M320.82,155.43h3.41a0,0,0,0,1,0,0V181a1.53,1.53,0,0,1-1.53,1.53h-.09a1.79,1.79,0,0,1-1.79-1.79V155.43A0,0,0,0,1,320.82,155.43Z" transform="translate(138.96 483.43) rotate(-87.38)"/><path class="cls-13" d="M267.32,80.27h3.41a0,0,0,0,1,0,0v25.56a1.53,1.53,0,0,1-1.53,1.53h-.09a1.79,1.79,0,0,1-1.79-1.79V80.27a0,0,0,0,1,0,0Z" transform="translate(464.11 301.45) rotate(-152.44)"/><path class="cls-13" d="M156.93,78.78h3.41a0,0,0,0,1,0,0v25.56a1.53,1.53,0,0,1-1.53,1.53h-.09a1.79,1.79,0,0,1-1.79-1.79V78.78A0,0,0,0,1,156.93,78.78Z" transform="translate(342.08 86.23) rotate(147.9)"/><circle class="cls-11" cx="375.47" cy="326.98" r="8.6"/><circle class="cls-11" cx="58.26" cy="305.27" r="8.6"/><circle class="cls-11" cx="412.07" cy="188.02" r="8.6"/><circle class="cls-11" cx="403.46" cy="158.8" r="8.6"/><circle class="cls-11" cx="130.5" cy="49.79" r="8.6"/></g></g></svg>