<svg xmlns="http://www.w3.org/2000/svg" xmlns:xlink="http://www.w3.org/1999/xlink" viewBox="0 0 276.59 161.26"><defs><style>.cls-1{fill:url(#linear-gradient);}.cls-2{fill:url(#linear-gradient-2);}.cls-3{fill:url(#hair);}.cls-4{fill:#231f20;}.cls-5{fill:url(#linear-gradient-3);}.cls-6{fill:url(#linear-gradient-4);}.cls-7{fill:#fff;}.cls-8{fill:url(#linear-gradient-5);}.cls-9{fill:#662d91;}.cls-10{fill:url(#linear-gradient-6);}</style><linearGradient id="linear-gradient" x1="137.44" y1="23.76" x2="127.71" y2="188.28" gradientUnits="userSpaceOnUse"><stop offset="0.8" stop-color="#66bf72"/><stop offset="1" stop-color="#226939"/></linearGradient><linearGradient id="linear-gradient-2" x1="146.52" y1="89.1" x2="147.02" y2="89.1" gradientUnits="userSpaceOnUse"><stop offset="0.93" stop-color="#67bf73"/><stop offset="1" stop-color="#236a39"/></linearGradient><linearGradient id="hair" y1="39.42" x2="39.17" y2="39.42" gradientUnits="userSpaceOnUse"><stop offset="0.54" stop-color="#a67c58"/><stop offset="1" stop-color="#754d29"/></linearGradient><linearGradient id="linear-gradient-3" x1="228.11" y1="44.41" x2="240.69" y2="136.92" gradientTransform="matrix(0.91, 0.41, -0.32, 0.71, 45.37, -84.35)" gradientUnits="userSpaceOnUse"><stop offset="0.87" stop-color="#67bf73"/><stop offset="0.99" stop-color="#236a39"/></linearGradient><linearGradient id="linear-gradient-4" x1="163.72" y1="65.85" x2="149.17" y2="73.22" gradientTransform="matrix(1.71, 0.4, -0.81, 0.72, -66.4, -55.19)" gradientUnits="userSpaceOnUse"><stop offset="0.29" stop-color="#b380b8"/><stop offset="1" stop-color="#8e52a1"/></linearGradient><linearGradient id="linear-gradient-5" x1="176.87" y1="203.67" x2="142.03" y2="223.71" gradientTransform="matrix(0.8, -0.54, 0.62, 0.91, -130.06, -29.41)" xlink:href="#linear-gradient-4"/><linearGradient id="linear-gradient-6" x1="116.76" y1="-33.63" x2="116.45" y2="27.46" gradientUnits="userSpaceOnUse"><stop offset="0.54" stop-color="#2f9250"/><stop offset="1" stop-color="#1f5a32"/></linearGradient></defs><g id="Layer_2" data-name="Layer 2"><g id="Layer_1-2" data-name="Layer 1"><path class="cls-1" d="M214.1,111.32c-2.3,12.5-7.7,25.73-19.16,35.69-16.71,14.52-37.15,14.37-57.12,14.22-15-.11-44.67-.26-65.31-15.79a52.26,52.26,0,0,1-12.44-13.21c-10.31-15.75-9.49-32.76-9-43,0-.1.07-1.7.22-3.56.32-4,.75-9.43,1.7-15.7a115.66,115.66,0,0,1,8.25-29.59c1.12-2.51,2.37-5,3.76-7.42A64.93,64.93,0,0,1,81.35,13.8C97.77,1,117.05-.26,128.17,0h0c2.6.07,4.75.23,6.32.34.94.07,2.07.16,3.36.31a87.24,87.24,0,0,1,47,20.33A84.57,84.57,0,0,1,204.05,45,93.42,93.42,0,0,1,214,74.23C214.61,78.16,217.3,94,214.1,111.32Z"/><path class="cls-2" d="M86.39,146c-6.57,4.5-17.86-1.86-31.8-9.9C38.43,126.74,26.08,119.61,15.51,104A86.9,86.9,0,0,1,1.92,70.52,84.92,84.92,0,0,1,1,47.79c0-.39.07-.75.11-1.11-.09-.2-.2-.47-.32-.82C-.64,41.62,0,35.88,2.91,33c1.24-1.27,3.42-2.56,11.52-2.16A74.22,74.22,0,0,1,35.63,35c.87,2.4,2.15,6,3.62,10.54.24.73.48,1.49.72,2.27,3.72,11.7,4.08,15,5.69,17a8.44,8.44,0,0,0,1,1c8.44,7.84,19.14,5.6,27,10.95,2.79,1.91,4.67,5.62,8.44,13.05,0,0,6.7,13.06,8.91,32.48a45.55,45.55,0,0,1,.3,6.06C91.17,135.72,91,142.82,86.39,146Z"/><path class="cls-3" d="M39.17,45.73,1,47.94c0-.38.07-.74.1-1.1C1,46.64.85,46.37.74,46-.71,41.78,0,36,2.84,33.12,4.08,31.85,6.26,30.56,14.36,31a74.14,74.14,0,0,1,21.2,4.22C36.43,37.59,37.71,41.23,39.17,45.73Z"/><path class="cls-4" d="M168.76,116.23c-2.53,9.69-8.13,19-16.89,24.19-5,3-10.65,4.4-16.4,5.31a86.77,86.77,0,0,1-19.18,1.1,79,79,0,0,1-18.88-3.69,2.6,2.6,0,0,0-3.07,1.48c-.41,1.3.66,2.2,1.76,2.55a85.18,85.18,0,0,0,18.08,3.66,87.39,87.39,0,0,0,20.75-.81c6.21-.9,12.42-2.2,18-5.18A39.87,39.87,0,0,0,167.3,131.6a48.32,48.32,0,0,0,6.29-14.29c.72-2.78-4.16-3.65-4.83-1.08Z"/><path class="cls-5" d="M261.45,105.47c-11.35,4.58-28.68,3.11-44.06-4.07-1.58-.74-3.15-1.54-4.68-2.41-1.32-.74-2.61-1.52-3.88-2.36a60,60,0,0,1-10.45-8.56c-.3-.29-.58-.59-.86-.89-17.46-18.79-14-45.94.53-49.89,11.4-3.11,31.93,7.47,41,13.77,2.42,1.68,4.19,3.16,11.73,8.52,11.8,8.39,12.93,8.63,16.12,11.72s9.56,9.25,9.47,16.45C276.34,91.29,279.58,98.18,261.45,105.47Z"/><path class="cls-6" d="M169.41,51.53c-1.42-.19-1.91,3.67-8.49,5.47a27.22,27.22,0,0,1-10.69.6c-6.55-1-9-4.48-9.86-4.28-1.33.31.29,8.77,11.13,10.31A23.45,23.45,0,0,0,168,59.76C172.47,56.29,170.9,51.72,169.41,51.53Z"/><path class="cls-7" d="M110.3,92.92a45.2,45.2,0,0,1,1.94-15.6,39.65,39.65,0,0,1,4.53-10c1.82-2.8,9.63-14.8,23.17-15.14,9.29-.23,20.47,5.05,24,15.41s-2.33,20.69-7.72,25.76C145.86,103.12,126.92,103.51,110.3,92.92Z"/><path class="cls-4" d="M134.58,54.28c10.41-.57,18.76,7.65,21.69,14.94,3.34,8.33,1.12,19.2-7.5,24A21.28,21.28,0,0,1,134.28,95c-12.08-3-20.83-17.45-16.4-28.62A19.55,19.55,0,0,1,134.58,54.28Z"/><path class="cls-8" d="M112.24,77.32a133.45,133.45,0,0,1,23.23-12.54,140.07,140.07,0,0,1,22.95-7.33c-7-5.56-17.49-7.08-27-3.86C120.28,57.38,112.33,67.06,112.24,77.32Z"/><path class="cls-9" d="M215.84,94.79l-.92,8.47a62.52,62.52,0,0,0,12.16,4,66.5,66.5,0,0,0,23.73.59,74.78,74.78,0,0,0,8.38-1.64,96.16,96.16,0,0,1-19.49-2.44A96.76,96.76,0,0,1,215.84,94.79Z"/><path class="cls-10" d="M171.57,32.23c-2,.62-4.1,1.21-6.35,1.75-2.81.68-5.48,1.2-8,1.59L152.08,30c-2.2-4-2.94-4.5-3.24-4.39-.69.27-.07,4.05.34,6,.79,3.68,1.66,4.42,1.16,5.56-.71,1.63-3.1,1.48-8.46,2.43-8.29,1.45-9.35,3-11.46,1.81-1.25-.7-1-1.31-5.36-8-2-3-2.67-3.86-3.21-3.72-.93.23-1,3.38-.71,5.58a15.31,15.31,0,0,0,2.58,6.54c-3.57.18-7.24.41-11,.71-4.69.38-9.23.85-13.61,1.38a14.85,14.85,0,0,1-1.91-4.13c-.8-2.85-.4-4.91-.75-5s-1.13,1.6-3.21,9.19a14.6,14.6,0,0,1-5.63,1.51,14.28,14.28,0,0,1-6.54-1.19Q84.13,31,83.15,30.7T76.54,44.53a23.49,23.49,0,0,1-9-1,23,23,0,0,1-6.32-3.13c1.12-2.51,2.37-5,3.76-7.42A64.93,64.93,0,0,1,81.35,13.8C97.77,1,117.05-.26,128.17,0h0c2.6.07,4.75.23,6.32.34.94.07,2.07.16,3.36.31a51.06,51.06,0,0,1,7.64,3.4c8,4.36,12.77,9.77,16.24,13.75A73,73,0,0,1,171.57,32.23Z"/></g></g></svg>