<svg xmlns="http://www.w3.org/2000/svg" xmlns:xlink="http://www.w3.org/1999/xlink" viewBox="0 0 225.01 161.03"><defs><style>.cls-1{fill:url(#linear-gradient);}.cls-2{fill:url(#pGreen);}.cls-3{fill:url(#linear-gradient-2);}.cls-4{fill:url(#y);}.cls-5{fill:url(#y-2);}.cls-6{fill:url(#linear-gradient-3);}.cls-7{fill:url(#linear-gradient-4);}.cls-8{fill:url(#linear-gradient-5);}.cls-9{fill:url(#linear-gradient-6);}.cls-10{fill:url(#linear-gradient-7);}.cls-11{fill:url(#linear-gradient-8);}.cls-12{fill:url(#linear-gradient-9);}.cls-13{fill:url(#linear-gradient-10);}.cls-14{fill:url(#linear-gradient-11);}.cls-15{fill:url(#linear-gradient-12);}.cls-16{fill:url(#linear-gradient-13);}.cls-17{fill:url(#linear-gradient-14);}.cls-18{fill:url(#linear-gradient-15);}.cls-19{fill:url(#linear-gradient-16);}.cls-20{fill:url(#y-3);}.cls-21{fill:url(#linear-gradient-17);}.cls-22{fill:url(#linear-gradient-18);}.cls-23{fill:url(#linear-gradient-19);}.cls-24{fill:url(#pGreen-2);}.cls-25,.cls-31{fill:#fff;}.cls-26{fill:url(#linear-gradient-20);}.cls-27{fill:url(#linear-gradient-21);}.cls-28{fill:#231f20;stroke:#231f20;stroke-miterlimit:10;}.cls-29{fill:#ab5ea5;}.cls-30{fill:url(#linear-gradient-22);}.cls-31{opacity:0.68;}.cls-32,.cls-33{fill:none;stroke-linecap:round;stroke-linejoin:round;}.cls-32{stroke:#ed1c24;stroke-width:17px;}.cls-33{stroke:#943d41;stroke-width:3px;opacity:0.5;}.cls-34{fill:url(#linear-gradient-23);}</style><linearGradient id="linear-gradient" x1="97.55" y1="159.65" x2="63.8" y2="115.77" gradientTransform="matrix(-1.06, 0.33, 0.5, 1, 29.05, -24.34)" gradientUnits="userSpaceOnUse"><stop offset="0" stop-color="#71c062"/><stop offset="1" stop-color="#318843"/></linearGradient><linearGradient id="pGreen" x1="184.58" y1="122.19" x2="238.31" y2="142.93" gradientTransform="matrix(1.02, 0.34, -0.46, 0.98, 44.38, -70.45)" gradientUnits="userSpaceOnUse"><stop offset="0" stop-color="#71c062"/><stop offset="1" stop-color="#297138"/></linearGradient><linearGradient id="linear-gradient-2" x1="113.73" y1="27.51" x2="109.11" y2="199.51" gradientUnits="userSpaceOnUse"><stop offset="0.5" stop-color="#71c062"/><stop offset="1" stop-color="#297138"/></linearGradient><linearGradient id="y" x1="-38.08" y1="155.99" x2="22.29" y2="101.87" gradientTransform="matrix(0.8, -0.39, 0.17, 0.87, -11.74, 23.12)" gradientUnits="userSpaceOnUse"><stop offset="0.32" stop-color="#e6e640"/><stop offset="1" stop-color="#e4e417"/></linearGradient><linearGradient id="y-2" x1="111.11" y1="42.3" x2="107.27" y2="184.92" gradientTransform="matrix(1, 0, 0, 1, 0, 0)" xlink:href="#y"/><linearGradient id="linear-gradient-3" x1="234.93" y1="39.06" x2="301.31" y2="76.82" gradientTransform="matrix(-0.71, 0, 0, 0.9, 404.05, 9.47)" gradientUnits="userSpaceOnUse"><stop offset="0" stop-color="#a0b8b8"/><stop offset="0.85" stop-color="#318687"/></linearGradient><linearGradient id="linear-gradient-4" x1="345.62" y1="-19.12" x2="386.46" y2="-97.96" gradientTransform="matrix(-0.71, 0, 0, 0.9, 404.05, 9.47)" gradientUnits="userSpaceOnUse"><stop offset="0" stop-color="#7ecfd4"/><stop offset="0.85" stop-color="#409394"/></linearGradient><linearGradient id="linear-gradient-5" x1="269.22" y1="40.44" x2="261.15" y2="89.45" gradientTransform="matrix(-0.71, 0, 0, 0.9, 404.05, 9.47)" gradientUnits="userSpaceOnUse"><stop offset="0" stop-color="#7ecfd4"/><stop offset="1" stop-color="#409394"/></linearGradient><linearGradient id="linear-gradient-6" x1="551.7" y1="33.79" x2="614.7" y2="69.63" gradientTransform="matrix(0.73, 0.02, -0.03, 1.05, -423.44, -16.3)" gradientUnits="userSpaceOnUse"><stop offset="0" stop-color="#a0b8b8"/><stop offset="0.85" stop-color="#409394"/></linearGradient><linearGradient id="linear-gradient-7" x1="670.58" y1="-13.51" x2="708.59" y2="-86.89" gradientTransform="matrix(0.73, 0.02, -0.03, 1.05, -423.44, -16.3)" xlink:href="#linear-gradient-4"/><linearGradient id="linear-gradient-8" x1="598.21" y1="44.39" x2="591.02" y2="88.08" gradientTransform="matrix(0.73, 0.02, -0.03, 1.05, -423.44, -16.3)" xlink:href="#linear-gradient-5"/><linearGradient id="linear-gradient-9" x1="35.81" y1="31.65" x2="-4.42" y2="-10.91" gradientTransform="translate(15.03 10.54) rotate(12.97)" gradientUnits="userSpaceOnUse"><stop offset="0" stop-color="#7fcfd4"/><stop offset="0.85" stop-color="#409394"/></linearGradient><linearGradient id="linear-gradient-10" x1="-182.06" y1="222.04" x2="-164.21" y2="274.74" gradientTransform="matrix(-1.08, 0.22, 0.17, 0.83, -182.58, -87.18)" xlink:href="#linear-gradient-3"/><linearGradient id="linear-gradient-11" x1="-17.99" y1="12.26" x2="47.91" y2="12.26" gradientTransform="translate(15.03 10.54) rotate(12.97)" xlink:href="#linear-gradient-6"/><linearGradient id="linear-gradient-12" x1="62.91" y1="86.34" x2="101.68" y2="128.93" gradientTransform="matrix(-0.91, 0.41, 0.41, 0.91, 57.45, 6.22)" gradientUnits="userSpaceOnUse"><stop offset="0" stop-color="#c05ba3"/><stop offset="1" stop-color="#914198"/></linearGradient><linearGradient id="linear-gradient-13" x1="33.57" y1="23.25" x2="68.75" y2="68.85" gradientTransform="matrix(-0.96, 0.29, 0.29, 0.96, 79.03, 6.94)" gradientUnits="userSpaceOnUse"><stop offset="0" stop-color="#acdcd5"/><stop offset="1" stop-color="#00b2b5"/></linearGradient><linearGradient id="linear-gradient-14" x1="41.85" y1="53.88" x2="11.02" y2="5.17" gradientTransform="matrix(-1.07, 0.06, 0.05, 1.07, 89.1, 2.27)" xlink:href="#pGreen"/><linearGradient id="linear-gradient-15" x1="185.48" y1="76.72" x2="135.92" y2="24.28" gradientTransform="matrix(1, 0, 0, 1, 0, 0)" xlink:href="#linear-gradient-4"/><linearGradient id="linear-gradient-16" x1="-407.61" y1="366.09" x2="-389.76" y2="418.79" gradientTransform="matrix(1.09, 0.15, -0.12, 0.84, 661.22, -186.1)" xlink:href="#linear-gradient-3"/><linearGradient id="y-3" x1="203.78" y1="146.52" x2="261.71" y2="95.87" gradientTransform="matrix(-0.97, -0.25, -0.25, 0.97, 447.53, 60.92)" xlink:href="#y"/><linearGradient id="linear-gradient-17" x1="111.67" y1="37.02" x2="177.3" y2="37.02" gradientUnits="userSpaceOnUse"><stop offset="0" stop-color="#a0b8b8"/><stop offset="0.84" stop-color="#409394"/></linearGradient><linearGradient id="linear-gradient-18" x1="-790.3" y1="368.77" x2="-751.53" y2="411.36" gradientTransform="translate(1059.86 8.26) rotate(18.22)" xlink:href="#linear-gradient-12"/><linearGradient id="linear-gradient-19" x1="-262.27" y1="111.76" x2="-227.09" y2="157.36" gradientTransform="matrix(0.96, 0.29, -0.29, 0.96, 452.68, 6.94)" xlink:href="#linear-gradient-13"/><linearGradient id="pGreen-2" x1="-245.59" y1="69.35" x2="-276.42" y2="20.64" gradientTransform="matrix(1.07, 0.06, -0.05, 1.07, 442.62, 2.27)" xlink:href="#pGreen"/><linearGradient id="linear-gradient-20" x1="98.31" y1="106.63" x2="111.45" y2="26.42" gradientUnits="userSpaceOnUse"><stop offset="0.72" stop-color="#ed3a40"/><stop offset="1" stop-color="#f494ba"/></linearGradient><linearGradient id="linear-gradient-21" x1="111.46" y1="24.91" x2="124.6" y2="-55.31" gradientUnits="userSpaceOnUse"><stop offset="0.72" stop-color="#ed3a40"/><stop offset="1" stop-color="#ea7768"/></linearGradient><linearGradient id="linear-gradient-22" x1="110" y1="102.99" x2="112.61" y2="58.35" gradientUnits="userSpaceOnUse"><stop offset="0.72" stop-color="#bf2026"/><stop offset="1" stop-color="#ea7768"/></linearGradient><linearGradient id="linear-gradient-23" x1="89.98" y1="125.17" x2="88.94" y2="131.51" gradientTransform="matrix(1.03, 0.33, -0.43, 1.33, 37.91, -132.05)" gradientUnits="userSpaceOnUse"><stop offset="0" stop-color="#a0b8b8"/><stop offset="1" stop-color="#409394"/></linearGradient></defs><g id="Layer_2" data-name="Layer 2"><g id="Layer_1-2" data-name="Layer 1"><path class="cls-1" d="M33.93,72.33q-1.8,19.73-3.61,39.46l-2.8,5.85c.26,1.34,2.23,12.33-3.95,20.08-3.91,4.9-10.19,9.22-14,5.76-6.4-5.82-4.88-32.2,3.5-46.77a69.37,69.37,0,0,1,5.62-7.87A122.24,122.24,0,0,1,33.93,72.33Z"/><path class="cls-2" d="M167.46,78.28l5.25,39.22,3.65,5.86c-.31,1.33-2.61,12.2,5.35,20,3.8,3.72,11.89,8.66,17.84,6,8.72-4,10.74-23.32,4.26-36.47-2.34-4.75-6.89-9.49-16.76-17.92C182.2,90.79,175.51,85.09,167.46,78.28Z"/><path class="cls-3" d="M207.78,133.27q0,.42,0,.84a11.25,11.25,0,0,1-.25,2,13.52,13.52,0,0,1-.73,2.32c-.06.15-.13.29-.2.43a11.65,11.65,0,0,1-3.51,4.43,9.56,9.56,0,0,1-2.43,1.34c-5.6,2.12-13.5-.8-17.21-7.8l0-.06h0l-.08-.14s0,.07,0,.1,0,.1,0,.15h0s0,.06,0,.09a14.68,14.68,0,0,1,.24,2.62,14.48,14.48,0,0,1-.8,4.75A16.07,16.07,0,0,1,169.56,155c-8,.93-16-4.26-17.9-12.19-.52,10-9.27,17.9-19.86,18.25-10.23.35-19.35-6.52-21.08-16l0-.13s0,0,0,.08c-.93,8.41-9.6,14.85-19.58,14.54-8.92-.26-16.33-5.81-18-13a13.3,13.3,0,0,1-.35-2.9,12.74,12.74,0,0,1-.87,1.63c-3.79,6.26-11.93,9.67-19.58,8.31a17.15,17.15,0,0,1-12.84-9.68,13.46,13.46,0,0,1-.9-2.8,15.6,15.6,0,0,1-1.13,1.17c-4.55,4.31-11.2,5.81-16.21,3.93a11.11,11.11,0,0,1-4.15-2.74,11.51,11.51,0,0,1-1.83-2.51A11,11,0,0,1,14,137.31c0-.12,0-.25,0-.37a.5.5,0,0,1,0-.12,8,8,0,0,1,.2-2.79.75.75,0,0,1,0-.16,7.82,7.82,0,0,1,.48-1.33,15.85,15.85,0,0,1,1.14-2,63.1,63.1,0,0,0,4.42-6.84,24.45,24.45,0,0,0,1.53-3.83c.16-.52.3-1,.41-1.54a0,0,0,0,1,0,0c1.41-6,.17-11,0-13.34a11.84,11.84,0,0,1,0-1.2c0-.24,0-.48,0-.74v0s0-.11,0-.17,0-.09,0-.13a16.16,16.16,0,0,1,.32-2.07,38.49,38.49,0,0,1,1.34-4.76c.07-.19.14-.4.21-.6s.16-.45.25-.68h0c.31-.85.67-1.76,1.07-2.71l.15-.36c.1-.24.2-.48.31-.72s.28-.64.43-1,.18-.42.29-.64c.24-.55.5-1.11.77-1.69.12-.24.24-.48.36-.74s.27-.56.41-.85c.31-.64.65-1.29,1-2,.05-.11.1-.22.16-.33l.3-.58c.27-.5.53-1,.81-1.53l.93-1.74c.72-1.32,1.48-2.69,2.3-4.13s1.67-2.91,2.59-4.46,2.05-3.43,3.17-5.26l.7-1.13,2.3-3.67.42-.65.22-.35.6-.93q4.31-6.75,9.72-14.73l.8-1.17.64-.93c.41-.6.81-1.21,1.24-1.82v0c.42-.61.86-1.23,1.29-1.86.69-1,1.39-2,2.12-3q2.7-3.9,5.66-8.06l.82-1.15c.49-.7,1-1.4,1.5-2.11l0,0,0-.07c.17-.24.34-.47.5-.72l4.15-5.76,1.19-1.62,1.12-1.55.15-.22.18-.23.08-.12h0a2.07,2.07,0,0,1,.17-.24l.12-.16c.68-.59,1.39-1.16,2.1-1.7s1.22-.92,1.82-1.35.94-.65,1.4-1A47.53,47.53,0,0,1,85,6.9C97.21.59,109.92.1,112.65,0h.65c13.26.25,27.48,4.08,36.45,11.14.65.52,1.28,1,1.87,1.6a25.43,25.43,0,0,1,3.12,3.39l.22.3c.21-.09.44-.17.66-.25l.12.17,1,1.44c1.2,1.78,2.38,3.53,3.52,5.24l.11.16c.09.15.2.3.29.45q5.45,8.13,10,15.28l1.13,1.77c.68,1,1.35,2.11,2,3.13.08.14.17.27.25.4l.57.92.47.76c3.56,5.68,6.68,10.87,9.43,15.61l.13.24.34.59.08.13c0,.07.09.14.13.22.74,1.28,1.44,2.53,2.12,3.74,3.28,5.88,5.89,11,7.93,15.38.3.65.59,1.28.86,1.89a.2.2,0,0,1,0,.08c.21.46.4.9.6,1.35a3.05,3.05,0,0,1,.13.32c.23.5.43,1,.63,1.47l.05.12c.06.16.13.33.21.5a0,0,0,0,0,0,0c.06.15.12.29.17.44s.11.29.17.44l.11.27h0c.25.65.49,1.28.71,1.89.09.24.17.48.25.72a36.08,36.08,0,0,1,2.3,10h0a2.18,2.18,0,0,1,0,.25,12.46,12.46,0,0,1,0,1.52c0,.15,0,.31,0,.45a.59.59,0,0,1,0,.14s0,0,0,.08a7.69,7.69,0,0,1-.2,1c-.12.43-.34,1.07-.59,1.88h0c0,.09-.05.18-.08.29s-.12.41-.18.63c-.15.54-.3,1.14-.44,1.78,0,.13-.06.27-.08.4a20.63,20.63,0,0,0-.31,2.37,19.09,19.09,0,0,0,.17,4.79,17,17,0,0,0,1.25,4.18c.1.23.21.46.32.68a20.21,20.21,0,0,0,2,3.1c.45.59.9,1.13,1.33,1.65s.67.79,1,1.18a9.43,9.43,0,0,1,2.1,4h0a0,0,0,0,1,0,0,9,9,0,0,1,.17,1.22A1.69,1.69,0,0,1,207.78,133.27Z"/><path class="cls-4" d="M36.82,67.79q-3.36,18.92-6.73,37.84l-2.84,5.74c.08,1.26.61,11.64-5.15,19.36-2.75,3.68-8.35,8.66-11.92,6.24-5.25-3.54-4.87-22.1.41-34.91,1.9-4.64,5.22-9.32,12.26-17.71C26.32,80.23,31.08,74.57,36.82,67.79Z"/><path class="cls-5" d="M73.9,35.1c-45.73,47.84-57,66.73-56.28,73.87.24,2.36,2.27,8.25-2,14.75-2.92,4.44-7,6.4-6.45,10.35.36,2.72,2.83,6,7.49,7.35a20.28,20.28,0,0,0,17.8-4c1.34,4.94,7,8.85,14.12,9.82,8.5,1.15,17.61-2.08,21-7.82.1,6.73,8.47,12.29,18.83,12.53s19.21-4.86,20.13-11.53c1.71,7.51,11.12,13,21.68,12.69,10.87-.27,19.85-6.53,20.38-14.36,1.92,6.24,10.17,10.32,18.39,9.59,9.13-.81,16-7.37,14.13-14.38,3.76,5.62,12,8,17.81,6.3,5-1.45,7.6-5.72,7.29-9.16-.35-3.92-4.51-5-7-9.38-3.33-5.75-.34-11.21.26-12.85,2.4-6.62-7.06-25.38-50.36-73.76C135.3,14.39,89.67,14.39,73.9,35.1Z"/><path class="cls-6" d="M182.54,81.31A28.16,28.16,0,0,0,184.3,91a21.26,21.26,0,0,0,4.5,7.44,15.73,15.73,0,0,0,1.81,1.62,14.87,14.87,0,0,0,6,2.81,12.42,12.42,0,0,0,1.62.26h0a17.41,17.41,0,0,0,6.61.27h0a15.51,15.51,0,0,0,5.81-2.16,18.77,18.77,0,0,0,5-4.59c.26-.34.52-.69.76-1,3.63-5.32,5.31-12.2,6.58-17.46a73.82,73.82,0,0,0,2-18.22,76.58,76.58,0,0,0-7.27-32.33c-.49-1-1-1.89-1.37-2.62l-.17-.31c-.11-.21-.23-.41-.35-.62s-.13-.23-.2-.35h0c-.07-.15-.16-.28-.24-.42l-.14.16a171,171,0,0,1-12.73,21.24c-.79,1.13-1.61,2.29-2.47,3.46l-1.29,1.73C191,60.49,186.18,67.18,184,73.24c-.2.54-.38,1.08-.53,1.61a20.6,20.6,0,0,0-.83,4.61C182.55,80.07,182.54,80.69,182.54,81.31Z"/><path class="cls-7" d="M182.54,81.31A28.16,28.16,0,0,0,184.3,91a21.26,21.26,0,0,0,4.5,7.44,15.73,15.73,0,0,0,1.81,1.62,20.12,20.12,0,0,0,6,2.81,12.42,12.42,0,0,0,1.62.26h0a17.41,17.41,0,0,0,6.61.27h0a15.51,15.51,0,0,0,5.81-2.16,18.77,18.77,0,0,0,5-4.59c.26-.34.52-.69.76-1a10.32,10.32,0,0,1-3.88-.21c-4.24-1-5.44-4.23-9.81-8.51-5.53-5.41-8.16-3.57-18.73-13.65l-.09-.07c-.1.33-.27.91-.44,1.68A34.67,34.67,0,0,0,182.54,81.31Z"/><path class="cls-8" d="M202.54,44.67A21.12,21.12,0,0,0,205,52c4.48,7.79,12.73,8.24,14.91,8.36a19.16,19.16,0,0,0,5.1-.43,76.58,76.58,0,0,0-7.27-32.33c-.44-.88-.9-1.75-1.37-2.62l-.17-.31c-.11-.21-.23-.41-.35-.62s-.13-.23-.2-.35h0l-.38-.26A171,171,0,0,1,202.54,44.67Z"/><path class="cls-9" d="M43.23,80.22a29,29,0,0,1-2.1,10,22.1,22.1,0,0,1-4.86,7.55,16.07,16.07,0,0,1-8.17,4.35,12.76,12.76,0,0,1-1.68.23h0a18.09,18.09,0,0,1-6.82.08h0A16.08,16.08,0,0,1,13.65,100a19,19,0,0,1-5-4.89q-.39-.54-.75-1.11c-3.6-5.6-5.12-12.76-6.28-18.24A76.79,76.79,0,0,1,.06,56.87a79.33,79.33,0,0,1,8.46-33.2c.54-1,1-1.92,1.49-2.67l.18-.31c.13-.22.26-.42.38-.63l.22-.36h0c.08-.15.17-.28.26-.43l.14.17a177,177,0,0,0,12.5,22.33c.78,1.19,1.6,2.42,2.45,3.65l1.27,1.83C35.08,58.46,39.9,65.51,42,71.84c.19.57.36,1.13.5,1.68a21.94,21.94,0,0,1,.72,4.79C43.26,78.94,43.25,79.58,43.23,80.22Z"/><path class="cls-10" d="M43.23,80.22a29,29,0,0,1-2.1,10,22.1,22.1,0,0,1-4.86,7.55,15.37,15.37,0,0,1-1.91,1.62,20.62,20.62,0,0,1-6.26,2.73,12.76,12.76,0,0,1-1.68.23h0a18.09,18.09,0,0,1-6.82.08h0A16.08,16.08,0,0,1,13.65,100a19,19,0,0,1-5-4.89q-.39-.54-.75-1.11a10.92,10.92,0,0,0,4-.09c4.41-1,5.74-4.22,10.37-8.51C28.15,80,30.81,81.94,42,71.84l.09-.07c.09.35.25,1,.41,1.75A36.22,36.22,0,0,1,43.23,80.22Z"/><path class="cls-11" d="M23.69,41.76a21.72,21.72,0,0,1-2.76,7.51C16.09,57.19,7.56,57.4,5.31,57.46a19.2,19.2,0,0,1-5.25-.59,79.33,79.33,0,0,1,8.46-33.2C9,22.78,9.49,21.89,10,21l.18-.31c.13-.22.26-.42.38-.63l.22-.36h0l.4-.26A177,177,0,0,0,23.69,41.76Z"/><path class="cls-12" d="M84.11,70.21a79,79,0,0,1-6.2,14.58h0c-.1.17-.17.31-.26.48s-.14.26-.22.39l-.17.27c-4.07,6.89-11.67,16.54-20.41,22.88-5.05,3.65-10.47,6.19-15.79,6.43,0,0,0,0,0,0h-.77a17.16,17.16,0,0,1-2.16-.12c-7.57-.93-12-6.68-15.85-12.06h0l-.19-.27-.36-.49c-.53-.74-1-1.49-1.5-2.24l-.45-.75c-.16-.25-.3-.51-.44-.76-.28-.51-.56-1-.81-1.52s-.51-1-.74-1.53-.35-.78-.52-1.18a44.39,44.39,0,0,1-3.34-15.58h0A59,59,0,0,1,15.53,63.2q.66-2.93,1.56-5.65a61.77,61.77,0,0,1,4.6-10.4c.06-.1.11-.2.17-.29s.12-.23.19-.34l.08-.15A76.1,76.1,0,0,1,39.88,25.64l2.17-1.77a103.7,103.7,0,0,1,8.68-6.56l.22-.14a29,29,0,0,1,8.41-3.93,16.83,16.83,0,0,1,5.83-.47C80.92,14.42,88.8,39.62,87.37,54.58v0s0,0,0,0A75.68,75.68,0,0,1,84.11,70.21Z"/><path class="cls-13" d="M21.71,102.32c4,5.59,8.48,11.86,16.4,12.83a17.91,17.91,0,0,0,2.93.11h0a38.12,38.12,0,0,0,15.79-6.43c7.91-5.32,15.24-13.51,20.79-23.55l.27-.47c-9.93,2.6-40,9.33-61.26-4.16-.92-.58-1.83-1.2-2.74-1.88A42.7,42.7,0,0,0,21.71,102.32Z"/><path class="cls-14" d="M87.37,54.58a91.78,91.78,0,0,0-42-10.6,98.65,98.65,0,0,0-23.16,2.5l-.17,0-.47.11.18-.29.15-.25A81.6,81.6,0,0,1,41.45,24.34l.6-.47c3-2.34,5.84-4.6,8.68-6.56l.22-.14a29,29,0,0,1,8.41-3.93,16.83,16.83,0,0,1,5.83-.47C80.92,14.42,88.8,39.62,87.37,54.58Z"/><path class="cls-15" d="M57.32,59.75,52.37,98,49.08,104c.27,1.26,2.24,11.6-4.91,19.71-3.41,3.87-10.65,9.22-15.93,7-7.75-3.19-9.42-21.77-3.55-34.94,2.12-4.76,6.2-9.66,15.06-18.53C44.11,72.9,50.11,66.91,57.32,59.75Z"/><path class="cls-16" d="M67.17,29.64Q62.28,48.32,57.4,67l-4,5.46c.1,1.28.74,11.78-7.38,18.92-3.87,3.4-11.73,7.79-16.7,5-7.28-4.15-6.57-22.79.92-35.1,2.71-4.46,7.38-8.8,17.29-16.47C52.39,41,59.1,35.83,67.17,29.64Z"/><path class="cls-17" d="M95.7,3.73Q85.74,22,75.8,40.24l-5.61,4.68C70,46.29,67.9,57.41,57.58,62.81c-5.21,2.73-14.79,5.17-18.67,1-5.64-6.09,2.43-24.31,12.76-35.28,5.72-6.07,11.69-9.45,19.63-13.94A139.45,139.45,0,0,1,95.7,3.73Z"/><path class="cls-18" d="M213.54,79.25c0,1.09,0,2.21-.11,3.36,0,.33-.05.66-.08,1s-.07.75-.11,1.13-.11.89-.17,1.34c-.14.92-.3,1.85-.51,2.8-.05.26-.11.51-.17.76s-.14.61-.22.92l-.15.62c-.06.22-.13.44-.19.66l-.08.24c-.06.22-.12.43-.19.64s-.12.38-.19.57c-.16.51-.34,1-.53,1.52l-.09.24s0,.07,0,.11c-.09.22-.17.45-.27.67s-.1.26-.16.39-.1.27-.16.4-.23.52-.35.78c0,0,0,.07-.05.1-.1.23-.21.46-.32.68-.18.39-.37.78-.58,1.17-.06.13-.13.27-.2.39h0a.83.83,0,0,1-.07.13c-.18.33-.36.66-.55,1s-.47.82-.73,1.23-.37.6-.55.9h0c-.2.32-.4.65-.61,1-.53.84-1.08,1.68-1.64,2.5l0,.05c-.51.73-1,1.45-1.59,2.14-.26.33-.52.65-.8,1l-.08.09-.11.13-.19.22-.39.41c-.24.26-.5.52-.76.78s-.39.37-.59.55l-.41.36-.22.19a17.4,17.4,0,0,1-1.56,1.15,6.65,6.65,0,0,1-.56.36,16.42,16.42,0,0,1-7.6,2.36l-.74,0s0,0,0,0h0a24,24,0,0,1-9-1.77,38.75,38.75,0,0,1-5.48-2.65c-.49-.27-1-.57-1.47-.87l0,0-.12-.07c-.22-.14-.44-.28-.65-.43a1.14,1.14,0,0,1-.23-.15c-8.77-5.76-16.59-14.51-21-20.9-.15-.22-.3-.44-.44-.66l-.29-.46h0A80.19,80.19,0,0,1,142.9,74.1a77.84,77.84,0,0,1-4.24-15.31s0,0,0-.07v0c-.09-.55-.17-1.11-.23-1.69s-.1-1-.14-1.48a56.85,56.85,0,0,1,2.35-20c.25-.83.52-1.65.81-2.45.21-.59.44-1.17.67-1.75l.31-.75c.2-.46.4-.91.61-1.36s.36-.76.56-1.13a27.85,27.85,0,0,1,6.4-8.57,17.52,17.52,0,0,1,4.15-2.73l.48-.22.35-.14c.21-.09.44-.17.66-.25a15.29,15.29,0,0,1,2.46-.63,16.55,16.55,0,0,1,5.83.07A29.48,29.48,0,0,1,172.48,19l.18.11a98.62,98.62,0,0,1,9.22,6.05l2.28,1.63A76.47,76.47,0,0,1,202.33,45l.35.51.54.81a.78.78,0,0,1,.1.15l.2.31.18.28a60,60,0,0,1,5,9.33c.11.25.22.5.32.75.71,1.76,1.36,3.61,1.93,5.53a59.75,59.75,0,0,1,2.62,15.42h0C213.54,78.46,213.54,78.85,213.54,79.25Z"/><path class="cls-19" d="M207.27,102.1c-3.62,5.83-7.7,12.38-15.54,13.86a18.89,18.89,0,0,1-2.92.3h0a38,38,0,0,1-16.17-5.39c-8.24-4.8-16.09-12.5-22.28-22.15l-.29-.46c10.07,2,40.48,6.72,60.86-8.12.88-.64,1.75-1.32,2.61-2.06A42.77,42.77,0,0,1,207.27,102.1Z"/><path class="cls-20" d="M164,78.21q4.78,19.26,9.56,38.5l4.38,5.33c-.18,1.37-1.4,12.6,7.63,19.22,4.31,3.16,13.17,6.89,19,3.31,8.58-5.25,8.62-24.95.55-37.15C202.21,103,197,99,186,92,180.5,88.55,173,83.84,164,78.21Z"/><path class="cls-21" d="M203.78,46.51l-.46-.07-.18,0-.27,0-1.38-.22a98.62,98.62,0,0,0-19.18-.89c-.81,0-1.63.09-2.46.15-1.22.09-2.41.21-3.59.34l-1.18.16c-2.62.33-5.13.76-7.52,1.27-1.67.35-3.28.74-4.83,1.16-.69.18-1.36.37-2,.57-2.21.64-4.29,1.34-6.25,2.07q-2.66,1-5,2c-1.45.64-2.81,1.28-4.07,1.92h0c-1,.51-1.95,1-2.84,1.5s-1.77,1-2.56,1.46l-1.34.81c-.09-.55-.17-1.11-.23-1.69s-.1-1-.14-1.48a56.85,56.85,0,0,1,2.35-20c.25-.83.52-1.65.81-2.45.21-.59.44-1.17.67-1.75l.31-.75c.2-.46.4-.91.61-1.36s.36-.76.56-1.13a27.85,27.85,0,0,1,6.4-8.57,17.52,17.52,0,0,1,4.15-2.73l.48-.22.35-.14c.21-.09.44-.17.66-.25a15.29,15.29,0,0,1,2.46-.63,16.55,16.55,0,0,1,5.83.07A29.48,29.48,0,0,1,172.48,19l.18.11c3,1.78,6.07,3.88,9.22,6.05l2.28,1.63A76.47,76.47,0,0,1,202.33,45l.35.51.54.81.2-.3.17.23Z"/><path class="cls-22" d="M166.54,63l8.7,37.61,3.87,5.57c-.14,1.28-1.08,11.76,6.83,19.12,3.78,3.52,11.51,8.13,16.56,5.44,7.39-3.93,7.21-22.59.07-35.11-2.58-4.53-7.13-9-16.82-16.95C181,74.75,174.43,69.38,166.54,63Z"/><path class="cls-23" d="M155.75,30q4.88,18.68,9.77,37.35l4,5.46c-.11,1.28-.75,11.79,7.37,18.92,3.87,3.41,11.74,7.8,16.7,5,7.28-4.14,6.58-22.78-.92-35.1-2.7-4.45-7.38-8.8-17.29-16.47C170.53,41.32,163.82,36.14,155.75,30Z"/><path class="cls-24" d="M127.22,4.05l19.9,36.5,5.6,4.69c.23,1.36,2.3,12.48,12.61,17.88,5.21,2.73,14.79,5.17,18.67,1,5.64-6.09-2.43-24.31-12.75-35.27-5.73-6.08-11.69-9.45-19.64-13.95A138.49,138.49,0,0,0,127.22,4.05Z"/><path class="cls-25" d="M129.7,4.47c21.5,8.54,34.65,35.82,36.57,39.94,8.18,17.48,21,44.85,7.46,68.38-13.22,23-42.46,26.41-50.58,27.36-3.42.4-51.36,5.26-70.68-27.36-14-23.69-3.31-50.81,2.32-65,2.4-6,13.69-34.62,37.05-43.32A59.85,59.85,0,0,1,116.2,1.11,54.72,54.72,0,0,1,129.7,4.47Z"/><path class="cls-26" d="M154.74,17.57c1.86,2.44,6.29,9.23,4,11-.9.71-2.78.56-4,.15a5,5,0,0,1-3.25-3.92,6.71,6.71,0,0,1-1.16,2.3c-.3.39-3.15,3.95-7.63,3.53a8.06,8.06,0,0,1-6-3.85,5.37,5.37,0,0,1-3.37,3c-2.73.66-6.66-1.2-8.14-5,.79,3-1.87,5.56-4.42,5.63a5,5,0,0,1-5-4.45,7.62,7.62,0,0,1-6.46,3.62c-3.25.09-6.29-1.68-7.34-4.35-.25,2.24-2.63,3.84-5.08,3.68a4.51,4.51,0,0,1-4.23-3.37A6.48,6.48,0,0,1,87.9,29a7.23,7.23,0,0,1-7.09-2.83A5.63,5.63,0,0,1,76,30c-3,.24-6.23-2-6.28-5.28-.44,1.73-1.52,3-2.84,3.15a3.62,3.62,0,0,1-3-1.26c-2.13-2.87,6.25-10.89,13.16-15.42,13.74-9,29.88-9.64,33-9.72C127,1,146.41,6.64,154.74,17.57Z"/><path class="cls-27" d="M159.37,25.73a2.18,2.18,0,0,1-.07.52h0v0a1.65,1.65,0,0,1-.56.87,3.44,3.44,0,0,1-2.3.47,8,8,0,0,1-1.68-.32,4.6,4.6,0,0,1-1.91-1.22,4.81,4.81,0,0,1-.65-.85,5.33,5.33,0,0,1-.69-1.85,5,5,0,0,1-.23.68,6.6,6.6,0,0,1-.93,1.62A9.69,9.69,0,0,1,145,29.09a7.39,7.39,0,0,1-1.44.15,4.21,4.21,0,0,1-.5,0l-.29,0h0a7.73,7.73,0,0,1-2-.48h0c-.26-.11-.51-.23-.75-.35a8.16,8.16,0,0,1-2.64-2.2,5.88,5.88,0,0,1-.57-.82,3.52,3.52,0,0,1-.24.46,5.12,5.12,0,0,1-3.13,2.53c-2.74.66-6.67-1.2-8.15-5a4,4,0,0,1,.1,1.63v0a.52.52,0,0,1,0,.11h0v0a4.83,4.83,0,0,1-4.5,3.84,5,5,0,0,1-5-4.45,7.62,7.62,0,0,1-6.46,3.62c-3.25.09-6.3-1.68-7.35-4.35-.24,2.24-2.62,3.84-5.07,3.68a4.52,4.52,0,0,1-4.21-3.29s0-.05,0-.08,0,.05,0,.1a6.47,6.47,0,0,1-4.71,3.36,7.43,7.43,0,0,1-2.82-.07,7.23,7.23,0,0,1-1.51-.5l-.27-.13-.17-.09a6.3,6.3,0,0,1-2.33-2l0,.1h0a6.32,6.32,0,0,1-.25.6A5.67,5.67,0,0,1,76,28.55a6.14,6.14,0,0,1-5.48-2.69,4.88,4.88,0,0,1-.79-2.59c-.45,1.73-1.53,3-2.84,3.15a2.26,2.26,0,0,1-.45,0,2.65,2.65,0,0,1-.48-.07s0,0,0,0a3.84,3.84,0,0,1-1.69-.84,2.25,2.25,0,0,1-.34-.36,1.78,1.78,0,0,1-.23-.43,0,0,0,0,0,0,0h0c-.53-1.54,1.06-4.09,3.58-6.8.75-.8,1.58-1.62,2.47-2.44h0l.35-.32.75-.66c.26-.22.51-.45.78-.66.7-.6,1.43-1.18,2.16-1.73,1.1-.85,2.22-1.64,3.3-2.35C90.8.73,106.94.11,110.09,0c1,0,2.06,0,3.1,0h.11c13.26.25,27.48,4.08,36.45,11.14.65.52,1.28,1,1.87,1.6a25.43,25.43,0,0,1,3.12,3.39l.22.3.42.58h0a1.77,1.77,0,0,1,.16.22c.31.44.64.94,1,1.47a23.36,23.36,0,0,1,2.44,4.8A6.21,6.21,0,0,1,159.37,25.73Z"/><ellipse class="cls-28" cx="80.87" cy="45.7" rx="10.79" ry="7.12" transform="translate(26.22 120.82) rotate(-83.43)"/><path class="cls-29" d="M140.12,34.13c-.29-.23-5.61-4.2-10.84-1.94a9.42,9.42,0,0,0-5.23,6.12c-1.48,6,5.56,14.43,17.64,20.48,10.63-6.43,16.74-14.94,15.07-21.37a9.48,9.48,0,0,0-4.64-6C148.63,29.72,143.93,30.79,140.12,34.13Z"/><ellipse class="cls-28" cx="141.02" cy="46.04" rx="7.46" ry="10.52" transform="translate(-3.63 13.12) rotate(-5.26)"/><ellipse class="cls-30" cx="111.46" cy="78.07" rx="24.55" ry="16.67"/><ellipse class="cls-31" cx="111.46" cy="69.96" rx="11.02" ry="7.48"/><path class="cls-32" d="M71.51,99.51a17.14,17.14,0,0,0,4.83,9.5,26.29,26.29,0,0,0,7.93,5.17,64.4,64.4,0,0,0,42.5,4.26,41.5,41.5,0,0,0,15.7-7.15,33.19,33.19,0,0,0,11.21-15.81"/><path class="cls-33" d="M71.51,99.51a17.14,17.14,0,0,0,4.83,9.5,26.29,26.29,0,0,0,7.93,5.17,64.4,64.4,0,0,0,42.5,4.26,41.5,41.5,0,0,0,15.7-7.15,33.19,33.19,0,0,0,11.21-15.81"/><path class="cls-34" d="M78.25,60c-2.79,2.14-3.92,5-3.37,6.4a2.23,2.23,0,0,0,3.41.58C79.49,65.87,79.88,62.76,78.25,60Z"/></g></g></svg>