<svg xmlns="http://www.w3.org/2000/svg" viewBox="0 0 168.71 193.14"><defs><style>.cls-1{fill:#e28c25;}.cls-2{fill:#8b1c1b;}.cls-3{fill:#ee2f24;}.cls-4{fill:#f7941d;}.cls-5{fill:#603913;}.cls-6{fill:#fff;}.cls-7{fill:#231f20;stroke:#231f20;}.cls-13,.cls-7{stroke-linecap:round;stroke-linejoin:round;}.cls-8{fill:#931e1d;}.cls-9{fill:#ef4136;}.cls-10{fill:#915824;}.cls-11{fill:#f7c588;}.cls-12{fill:#558d3f;}.cls-13{fill:#75c156;stroke:#8dc63f;stroke-width:6px;}</style></defs><g id="Layer_2" data-name="Layer 2"><g id="Layer_1-2" data-name="Layer 1"><path class="cls-1" d="M27.62,1.94,7.91,98.06a2.42,2.42,0,0,0,2.57,2.9l54.3-4.3a2.42,2.42,0,0,0,2.08-3.27L32.26,1.57A2.42,2.42,0,0,0,27.62,1.94Z"/><path class="cls-2" d="M30.77,21.08,15.31,85.78a1,1,0,0,0,1,1.23l40.91-3.24a1,1,0,0,0,.85-1.38L32.66,20.93A1,1,0,0,0,30.77,21.08Z"/><path class="cls-3" d="M31.44,35.6,19.91,100.16A1,1,0,0,0,21,101.34l33.1-2.63a1,1,0,0,0,.86-1.32L33.37,35.45A1,1,0,0,0,31.44,35.6Z"/><path class="cls-1" d="M135,3.41l-33.5,92.22a2.41,2.41,0,0,0,2.11,3.24L158,102.53a2.42,2.42,0,0,0,2.53-2.93L139.67,3.72A2.43,2.43,0,0,0,135,3.41Z"/><path class="cls-2" d="M135.35,22.81,110.62,84.56a1,1,0,0,0,.86,1.37l41,2.76a1,1,0,0,0,1-1.24L137.24,22.94A1,1,0,0,0,135.35,22.81Z"/><path class="cls-3" d="M133.9,37.27,113.08,99.46a1,1,0,0,0,.88,1.31L147.08,103a1,1,0,0,0,1-1.18L135.83,37.4A1,1,0,0,0,133.9,37.27Z"/><path class="cls-4" d="M168.71,122.9a58.72,58.72,0,0,1-1.56,13.5.09.09,0,0,1,0,0,57.86,57.86,0,0,1-2,6.62c0,.08-.05.15-.08.22a66.13,66.13,0,0,1-12.57,21,.31.31,0,0,1-.09.11h0q-2,2.26-4.18,4.38L148,169a82.55,82.55,0,0,1-16.95,12.42l-.12.06q-3.09,1.71-6.36,3.19l-.16.07a96.59,96.59,0,0,1-32.87,8.18H91.5q-3.54.26-7.15.25h-.12A99.53,99.53,0,0,1,55.62,189s0,0,0,0c-2.21-.66-4.38-1.41-6.5-2.22l-.21-.08A86,86,0,0,1,23.5,171.53a1.19,1.19,0,0,1-.18-.15c-1.68-1.46-3.29-3-4.81-4.57l-.13-.14C8.53,156.4,2.08,143.78.43,130a1.24,1.24,0,0,1,0-.27C.19,128,.07,126.23,0,124.46v-.26c0-.43,0-.86,0-1.3A59.87,59.87,0,0,1,5.59,97.7l.08-.17Q6.83,95,8.21,92.64l.15-.27C22,68.87,50.9,52.66,84.35,52.66,130.94,52.66,168.71,84.11,168.71,122.9Z"/><ellipse class="cls-5" cx="39.73" cy="119.11" rx="18.45" ry="15.68"/><ellipse class="cls-5" cx="127.65" cy="119.11" rx="18.45" ry="15.68"/><path class="cls-6" d="M38.66,105.64h2.14A17.38,17.38,0,0,1,58.19,123v7.5a7,7,0,0,1-7,7H28.9a7.62,7.62,0,0,1-7.62-7.62V123A17.38,17.38,0,0,1,38.66,105.64Z"/><path class="cls-6" d="M126.58,105.64h2.14A17.38,17.38,0,0,1,146.11,123v7.5a7,7,0,0,1-7,7H116.82a7.62,7.62,0,0,1-7.62-7.62V123A17.38,17.38,0,0,1,126.58,105.64Z"/><path class="cls-7" d="M124,114.5h2.12a12.29,12.29,0,0,1,12.29,12.29v5.33a5.42,5.42,0,0,1-5.42,5.42H115a3.39,3.39,0,0,1-3.39-3.39V126.8A12.29,12.29,0,0,1,124,114.5Z"/><path class="cls-7" d="M42.23,114.5h2.12A12.29,12.29,0,0,1,56.65,126.8v5.33a5.42,5.42,0,0,1-5.42,5.42H33.32a3.39,3.39,0,0,1-3.39-3.39V126.8A12.29,12.29,0,0,1,42.23,114.5Z"/><path class="cls-8" d="M119.93,151.53a25.62,25.62,0,0,1-6.14,15.87,33.09,33.09,0,0,1-10.44,7.69c-12.58,6.08-29.49,6.06-41.39-.43A28.58,28.58,0,0,1,52.81,167a29.44,29.44,0,0,1-5.66-15.48Z"/><path class="cls-9" d="M103.35,166.94v8.15c-12.58,6.08-29.49,6.06-41.39-.43V167.5A7.07,7.07,0,0,1,69,160.43H96.84A6.51,6.51,0,0,1,103.35,166.94Z"/><path class="cls-10" d="M8.21,92.64Q6.83,95,5.67,97.53A4.17,4.17,0,0,0,8.6,98.66c2,0,3.72-1.33,3.8-3h0a.57.57,0,0,0,0-.13c0-1.74-1.71-3.15-3.81-3.15H8.36Z"/><path class="cls-11" d="M5.59,97.7a4.15,4.15,0,0,0,3,1.22c2.1,0,3.81-1.41,3.81-3.15a.49.49,0,0,0,0-.12h0c-.08-1.68-1.75-3-3.8-3l-.39,0Q6.83,95,5.67,97.53Z"/><path class="cls-10" d="M0,124.46c0,1.77.16,3.52.37,5.25A4.35,4.35,0,0,0,2,130c2.06,0,3.72-1.34,3.8-3a.57.57,0,0,0,0-.13c0-1.74-1.7-3.15-3.81-3.15a4.33,4.33,0,0,0-2,.48Z"/><path class="cls-11" d="M5.85,127.13c0,1.74-1.7,3.15-3.81,3.15A4.43,4.43,0,0,1,.43,130a1.24,1.24,0,0,1,0-.27C.19,128,.07,126.23,0,124.46A4.26,4.26,0,0,1,2,124c2.06,0,3.72,1.34,3.8,3A.57.57,0,0,1,5.85,127.13Z"/><path class="cls-10" d="M25.09,168.71a.57.57,0,0,1,0,.13,3.1,3.1,0,0,1-1.76,2.54c-1.68-1.46-3.29-3-4.81-4.57l-.13-.14a4.16,4.16,0,0,1,2.9-1.11C23.38,165.56,25.09,167,25.09,168.71Z"/><path class="cls-11" d="M25.09,169a3,3,0,0,1-1.59,2.56,1.19,1.19,0,0,1-.18-.15c-1.68-1.46-3.29-3-4.81-4.57a4.19,4.19,0,0,1,2.77-1c2,0,3.72,1.34,3.8,3A.57.57,0,0,1,25.09,169Z"/><path class="cls-10" d="M91.67,192a.57.57,0,0,1,0,.13,2.77,2.77,0,0,1-.16.81q-3.54.26-7.15.25h0a2.6,2.6,0,0,1-.27-1.06.57.57,0,0,1,0-.13c0-1.74,1.7-3.15,3.8-3.15S91.67,190.21,91.67,192Z"/><path class="cls-11" d="M91.67,192.21a2.59,2.59,0,0,1-.09.68H91.5q-3.54.26-7.15.25h-.12a2.64,2.64,0,0,1-.17-.93.57.57,0,0,1,0-.13,3.54,3.54,0,0,1,3.79-3c2,0,3.72,1.34,3.8,3A.57.57,0,0,1,91.67,192.21Z"/><path class="cls-10" d="M131.09,181.39l-.12.06q-3.09,1.71-6.36,3.19a2.75,2.75,0,0,1-.75-1.77.57.57,0,0,1,0-.13c0-1.74,1.7-3.15,3.8-3.15A3.93,3.93,0,0,1,131.09,181.39Z"/><path class="cls-11" d="M131,181.45q-3.09,1.71-6.36,3.19l-.16.07a2.78,2.78,0,0,1-.6-1.71.57.57,0,0,1,0-.13,3.54,3.54,0,0,1,3.79-3A4,4,0,0,1,131,181.45Z"/><path class="cls-10" d="M152.53,164.26a.31.31,0,0,1-.09.11h0q-2,2.26-4.18,4.38a3.37,3.37,0,0,1-2.92-2.94.57.57,0,0,1,0-.13c0-1.74,1.71-3.15,3.81-3.15A4,4,0,0,1,152.53,164.26Z"/><path class="cls-11" d="M152.44,164.37h0q-2,2.26-4.18,4.38L148,169a3.31,3.31,0,0,1-2.71-3,.57.57,0,0,1,0-.13c.08-1.68,1.75-3,3.8-3A4,4,0,0,1,152.44,164.37Z"/><path class="cls-10" d="M55.62,188.67a.57.57,0,0,1,0,.13.76.76,0,0,1,0,.15c-2.21-.66-4.38-1.41-6.5-2.22l-.21-.08a4.17,4.17,0,0,1,2.93-1.13C53.92,185.52,55.62,186.93,55.62,188.67Z"/><path class="cls-11" d="M55.62,188.93v0s0,0,0,0c-2.21-.66-4.38-1.41-6.5-2.22a4.18,4.18,0,0,1,2.72-.95,3.54,3.54,0,0,1,3.79,3A.57.57,0,0,1,55.62,188.93Z"/><ellipse class="cls-10" cx="11.16" cy="143.19" rx="3.81" ry="3.15"/><ellipse class="cls-11" cx="11.16" cy="143.45" rx="3.81" ry="3.15"/><ellipse class="cls-10" cx="29.31" cy="92.48" rx="3.81" ry="3.15"/><ellipse class="cls-11" cx="29.31" cy="92.74" rx="3.81" ry="3.15"/><ellipse class="cls-10" cx="69.24" cy="138.91" rx="3.81" ry="3.15"/><ellipse class="cls-11" cx="69.24" cy="139.17" rx="3.81" ry="3.15"/><ellipse class="cls-10" cx="44.08" cy="78.14" rx="3.81" ry="3.15"/><ellipse class="cls-11" cx="44.08" cy="78.4" rx="3.81" ry="3.15"/><ellipse class="cls-10" cx="59.86" cy="103.3" rx="3.81" ry="3.15"/><ellipse class="cls-11" cx="59.86" cy="103.56" rx="3.81" ry="3.15"/><ellipse class="cls-10" cx="106.66" cy="100.86" rx="3.81" ry="3.15"/><ellipse class="cls-11" cx="106.66" cy="101.12" rx="3.81" ry="3.15"/><ellipse class="cls-10" cx="41.24" cy="157.02" rx="3.81" ry="3.15"/><ellipse class="cls-11" cx="41.24" cy="157.28" rx="3.81" ry="3.15"/><ellipse class="cls-10" cx="125.1" cy="90.17" rx="2.21" ry="2.64" transform="translate(-23.06 132.96) rotate(-51.89)"/><ellipse class="cls-11" cx="124.92" cy="90.04" rx="2.21" ry="2.64" transform="translate(-23.02 132.77) rotate(-51.89)"/><ellipse class="cls-10" cx="138.45" cy="75.88" rx="2.21" ry="2.64" transform="translate(-6.7 137.99) rotate(-51.89)"/><ellipse class="cls-11" cx="138.28" cy="75.74" rx="2.21" ry="2.64" transform="translate(-6.66 137.81) rotate(-51.89)"/><ellipse class="cls-10" cx="160.59" cy="103.37" rx="2.24" ry="2.57" transform="translate(-19.85 165.94) rotate(-51.89)"/><ellipse class="cls-11" cx="160.43" cy="103.24" rx="2.24" ry="2.57" transform="translate(-19.81 165.76) rotate(-51.89)"/><ellipse class="cls-10" cx="152.52" cy="116.27" rx="2.24" ry="2.57" transform="translate(-33.09 164.53) rotate(-51.89)"/><ellipse class="cls-11" cx="152.36" cy="116.14" rx="2.24" ry="2.57" transform="translate(-33.05 164.35) rotate(-51.89)"/><ellipse class="cls-10" cx="130.27" cy="146.67" rx="2.24" ry="2.57" transform="translate(-65.53 158.66) rotate(-51.89)"/><ellipse class="cls-11" cx="130.1" cy="146.54" rx="2.24" ry="2.57" transform="translate(-65.49 158.48) rotate(-51.89)"/><ellipse class="cls-10" cx="148.97" cy="139.65" rx="2.25" ry="2.73" transform="translate(-52.85 170.69) rotate(-51.89)"/><ellipse class="cls-11" cx="148.8" cy="139.52" rx="2.25" ry="2.73" transform="translate(-52.81 170.5) rotate(-51.89)"/><ellipse class="cls-10" cx="144.46" cy="96.74" rx="2.25" ry="2.73" transform="translate(-20.81 150.71) rotate(-51.89)"/><ellipse class="cls-11" cx="144.28" cy="96.6" rx="2.25" ry="2.73" transform="translate(-20.77 150.51) rotate(-51.89)"/><path class="cls-10" d="M167.14,136.45a57.86,57.86,0,0,1-2,6.62c0,.08-.05.15-.08.22a2.81,2.81,0,0,1-2.16-.54.74.74,0,0,1-.13-.12,3.58,3.58,0,0,1,0-4.83A3.68,3.68,0,0,1,167.14,136.45Z"/><path class="cls-11" d="M167.61,136.74a2.83,2.83,0,0,0-.47-.29,57.86,57.86,0,0,1-2,6.62,2.79,2.79,0,0,1-2.37-.44l-.07,0c-1.37-1.08-1.43-3.29-.13-5a3.62,3.62,0,0,1,4.54-1.24,1.81,1.81,0,0,1,.29.19Z"/><ellipse class="cls-10" cx="98.26" cy="135.83" rx="3.81" ry="3.15" transform="translate(-69.26 129.32) rotate(-51.89)"/><ellipse class="cls-11" cx="98.05" cy="135.67" rx="3.81" ry="3.15" transform="translate(-69.22 129.1) rotate(-51.89)"/><ellipse class="cls-10" cx="125.11" cy="75.54" rx="3.81" ry="3.15" transform="translate(-11.54 127.37) rotate(-51.89)"/><ellipse class="cls-11" cx="124.91" cy="75.38" rx="3.81" ry="3.15" transform="translate(-11.49 127.15) rotate(-51.89)"/><path class="cls-12" d="M82.5,52.41c-5.35,0-32.79.11-37.73,14.93C40.54,80,56.22,102.54,82.9,122.9a104.24,104.24,0,0,0,28.64-26.09c7.9-10.38,13.59-17.87,12.27-25.53C121.36,57.13,96.69,52.4,82.5,52.41Z"/><line class="cls-13" x1="81.5" y1="47.86" x2="81.5" y2="111.08"/><line class="cls-13" x1="82.47" y1="95.13" x2="89.9" y2="102.7"/><line class="cls-13" x1="81.61" y1="79.44" x2="100.56" y2="91.35"/><line class="cls-13" x1="79.77" y1="63.34" x2="110.81" y2="75.38"/><line class="cls-13" x1="79.55" y1="64.58" x2="52.36" y2="79.44"/><line class="cls-13" x1="78.77" y1="81.83" x2="65.44" y2="90.17"/></g></g></svg>